<svg xmlns="http://www.w3.org/2000/svg" xmlns:xlink="http://www.w3.org/1999/xlink" version="1.1" viewBox="0 0 512 186.5" height="60px"><path d="M386.8 155.4a7 7 0 0 1-1-3c-.6-6.1 7.7-9.7 16.9-20.1a78.8 78.8 0 0 0 5.6-7.1l-.2-.4c-.2-.4-7.2-2.7-21.1-6.8-21.6-7.4-34.9-17-39.8-28.6l-.2-.6c-3.7-8.6-4-18.4-.9-29.6l.5-.2h.9c1.4 6.4 2.5 10.6 3.4 12.5 6.2 14.7 24.7 25.2 55.4 31.3 8.2 2.3 12.9 4.7 14 7.3l.3.7a22.5 22.5 0 0 1 .4 7.7c-.8 8.6-6 14.4-10.4 19.3a61.9 61.9 0 0 1-14.2 11.6l.3.7h.2c5.7-3.4 31.3-18 62.9-10.2a79.2 79.2 0 0 1 26.4 12 90 90 0 0 0 18.8-35.4c-34.1-1.9-68.9 17.1-75.2 7.1a8.1 8.1 0 0 1-1.1-3c-.5-6.1 7.8-9.7 16.9-20.1a53.8 53.8 0 0 0 5.6-7.1V93c-.2-.4-7.3-2.7-21.2-6.8-21.5-7.4-34.8-17-39.7-28.6l-.3-.6c-3.6-8.6-3.9-18.4-.9-29.6l.6-.2h.9a93 93 0 0 0 3.3 12.4c6.3 14.7 24.8 25.2 55.5 31.3 8.2 2.3 12.9 4.7 14 7.3l.3.7a29.1 29.1 0 0 1 .4 7.7c-.8 8.6-6.1 14.4-10.5 19.3a58.9 58.9 0 0 1-14.1 11.6l.3.7h.2c5.7-3.4 31.3-18 62.9-10.2l3.8 1a89.6 89.6 0 1 0-21.7 44.4c-39.7-17.2-90.4 14.2-98.2 2Zm31.6-62.2a3.8 3.8 0 1 1-2 5 3.9 3.9 0 0 1 2-5Zm-17.3-11.9a6.7 6.7 0 0 1 8.9 3.6 6.8 6.8 0 0 1-3.5 8.9 7 7 0 0 1-9-3.6 6.8 6.8 0 0 1 3.6-8.9Zm52.3-38.5a13.7 13.7 0 0 1 17.9 7.2 13.6 13.6 0 1 1-17.9-7.2Zm-70.9 27.8a8 8 0 0 1 6.2 14.7 8.1 8.1 0 0 1-10.5-4.2 8 8 0 0 1 4.3-10.5Zm-7.3-4.3a3.9 3.9 0 0 1-2.1 5.1 3.8 3.8 0 0 1-5-2.1 3.9 3.9 0 0 1 2-5 4 4 0 0 1 5.1 2Zm-11-13a3.8 3.8 0 0 1 5 2.1 3.8 3.8 0 0 1-2 5 3.9 3.9 0 0 1-3-7.1Z" fill="#258a52"/><path fill="#123520" d="M97.5 151.2h38.7v16.23H97.5zm27.8-26.9c0 2-.5 3.1-1.7 3.4H96.1v-15.4a12.8 12.8 0 0 0-12.9-12.8h-6.7l-12.3.2-6.6.2-3 .3a14.6 14.6 0 0 0-4.6 1.6 9.2 9.2 0 0 0-3.1 3.1 15 15 0 0 0-1.8 4.8 32.6 32.6 0 0 0-.6 6.7v11.3H27.9c-1.1-.3-1.7-1.4-1.7-3.4V99.5H7.3v29.3a32.8 32.8 0 0 0 .5 6.6 15.3 15.3 0 0 0 1.5 4.7 9 9 0 0 0 2.9 3.2 13.5 13.5 0 0 0 4.4 1.8 42.9 42.9 0 0 0 9.8.9h37.2v-24.8c0-2.1.2-3.2.8-3.3h12.7V146h48a44.5 44.5 0 0 0 9.9-.9 13 13 0 0 0 4.3-1.8 8.2 8.2 0 0 0 2.9-3.2 13 13 0 0 0 1.6-4.7 32.8 32.8 0 0 0 .5-6.6V99.5h-19Zm59.5-46.2h19v16.23h-19z"/><path d="M284.2 124.3c0 1.9-.6 3.1-1.8 3.5h-10.3c-1.2-.4-1.8-1.6-1.8-3.5V99.5h-19v24.6c0 1.9-.7 3-2 3.5h-9.8c-1.2-.4-1.9-1.6-1.9-3.5V99.5h-19v24.6c0 1.9-.6 3-1.9 3.5l-1.1.2h-9.9c-1.1-.4-1.7-1.6-1.7-3.5V99.5h-19.1v24.6c0 1.9-.6 3-1.9 3.5h-10.5c-1.2-.3-1.8-1.4-1.8-3.4V74.7h-18.9v54.1a32.8 32.8 0 0 0 .5 6.6 13 13 0 0 0 1.6 4.7 8.2 8.2 0 0 0 2.9 3.2 12.7 12.7 0 0 0 4.4 1.8 42 42 0 0 0 9.7.9h19.4a17.7 17.7 0 0 0 3.1-.3c4-.7 6.4-2.4 7.3-5 1.5 3.6 5.1 5.4 10.7 5.4H224a19.1 19.1 0 0 0 3.2-.3c3.9-.7 6.3-2.4 7.2-5 1.5 3.6 5 5.4 10.6 5.4h11.7a18.9 18.9 0 0 0 3.1-.3c3.9-.7 6.4-2.4 7.3-5 1.5 3.6 5 5.4 10.6 5.4h6.3a39.1 39.1 0 0 0 9.7-.9c3.4-.8 5.8-2.4 7.2-4.9s2.2-6.2 2.2-11.2V99.5h-18.9ZM13.6 56.7h6.8l2.5-.4 2.2-.8a5.4 5.4 0 0 0 1.8-1.1 4.8 4.8 0 0 0 1.2-1.6 6.5 6.5 0 0 0 .4-2.1 5.8 5.8 0 0 0-.3-1.9 4.2 4.2 0 0 0-1.1-1.5h12.6a4.8 4.8 0 0 0 2.4-.6 8 8 0 0 0 1.7-1.5 7 7 0 0 0 1.1-2.2 9.1 9.1 0 0 0 .3-2.3 12.1 12.1 0 0 0-.1-1.9l-.3-2a11.6 11.6 0 0 0-.4-1.8 8.5 8.5 0 0 0-.4-1.7l-2 .6.3 1.6a8.5 8.5 0 0 1 .4 1.7L43 39c0 .6.1 1.2.1 1.7a7.7 7.7 0 0 1-.2 1.5 5.9 5.9 0 0 1-.6 1.4 5.2 5.2 0 0 1-1.1 1 3.3 3.3 0 0 1-1.5.4H18.1v2.2l3 .2 2.3.3 1.5.5a3 3 0 0 1 1.4 1.5c0 .3.1.6.1.9A2.9 2.9 0 0 1 26 52a3.8 3.8 0 0 1-1.1 1.1 5.2 5.2 0 0 1-1.5.7l-1.9.5-1.8.2h-6.1a8.6 8.6 0 0 1-3.6-.8 8.2 8.2 0 0 1-2.5-2.4 6.4 6.4 0 0 1-1-2.6 9.9 9.9 0 0 1-.3-2.4v-1.1a19.9 19.9 0 0 1 .8-3.8 32.2 32.2 0 0 1 1.6-4.2l-1.9-.9c-.6 1.3-1.1 2.6-1.6 4a20.1 20.1 0 0 0-.9 3.5c-.1 1-.2 1.9-.2 2.5a16.4 16.4 0 0 0 .2 2.2 10.3 10.3 0 0 0 1.5 4A7.6 7.6 0 0 0 9 55.6a9 9 0 0 0 4.6 1.1Zm23.1-5.6-2.2 2.1 2.2 2.2 2.2-2.2-1.1-1Zm9.1 2.1L43.7 51l-2.2 2.2 2.1 2.1 2.2-2.1zm-3.5 4.6-2.2-2.2-2.2 2.2 2.2 2.2 2.2-2.2zm9.2-35.4h2.2v24.75h-2.2zm1.3 34.4h2.4c3.2 0 5.7-.9 7.3-2.6s2.5-4.3 2.5-7.6V46a5.1 5.1 0 0 0 1.8.9 6.4 6.4 0 0 0 2 .3h7.5a4.6 4.6 0 0 0 2.3-.6 5 5 0 0 0 1.7-1.5 5.3 5.3 0 0 0 1.1-2.1 6.2 6.2 0 0 0 .4-2.3 12.3 12.3 0 0 0-.2-1.9 13.8 13.8 0 0 0-.3-2l-.3-1.9a13.6 13.6 0 0 1-.4-1.7l-2.1.6c.1.5.3 1 .4 1.6l.3 1.7a11.3 11.3 0 0 1 .3 1.8 10.3 10.3 0 0 1 .1 1.7 7.6 7.6 0 0 1-.1 1.5 6.1 6.1 0 0 1-.7 1.4 4.7 4.7 0 0 1-1 1 4.2 4.2 0 0 1-1.5.4h-8.8l-1.2-.6a2.4 2.4 0 0 1-.9-1.1 2.4 2.4 0 0 1-.4-1.5v-6.3h-2.1v11.2a9 9 0 0 1-1.7 5.9q-2 2.1-6 2.1h-2.4Zm30.3-30.2-2.2-2.2-1.1 1.1-1 1.1 2.1 2.1Zm-7.1-.1-2.2-2.1a9.4 9.4 0 0 1-1 1 11.4 11.4 0 0 1-1.1 1.1l2.2 2.2Zm13.8 19.1a9 9 0 0 0 2.4 1.2 11.7 11.7 0 0 0 2.7.4h4a7.3 7.3 0 0 1-.7 3.5 5.8 5.8 0 0 1-1.8 2.3 10.3 10.3 0 0 1-2.8 1.2 22.2 22.2 0 0 1-3.8.4h-1v2.1h1a22.4 22.4 0 0 0 4.6-.5 12.2 12.2 0 0 0 3.6-1.8 7 7 0 0 0 2.2-2.9 8.7 8.7 0 0 0 .8-4v-.3h9.6a4.6 4.6 0 0 0 2.3-.6 6.1 6.1 0 0 0 1.7-1.5 5.3 5.3 0 0 0 1.1-2.1 9.3 9.3 0 0 0 .4-2.3c-.1-.6-.1-1.3-.2-1.9l-.3-2a11.6 11.6 0 0 0-.4-1.8l-.3-1.7-2.1.6a12.4 12.4 0 0 0 .4 1.6l.3 1.7.3 1.8a10.3 10.3 0 0 1 .1 1.7 3.9 3.9 0 0 1-.2 1.5 3.5 3.5 0 0 1-.6 1.4 5.2 5.2 0 0 1-1.1 1 3.3 3.3 0 0 1-1.4.4H101v-4.3a17.9 17.9 0 0 0-.3-3.4 8.9 8.9 0 0 0-1.2-2.6 6 6 0 0 0-2.1-1.8 7.2 7.2 0 0 0-6.2 0 6 6 0 0 0-2.1 1.8 8.9 8.9 0 0 0-1.2 2.6 18.7 18.7 0 0 0-.3 3.4 6.8 6.8 0 0 0 .6 2.9 6.2 6.2 0 0 0 1.6 2Zm.1-7.4a5.2 5.2 0 0 1 .8-2 3.2 3.2 0 0 1 1.4-1.4 5.1 5.1 0 0 1 4.4 0 3.5 3.5 0 0 1 1.4 1.3 6.6 6.6 0 0 1 .8 2.1 18.1 18.1 0 0 1 .2 2.5V45h-3.7l-2.2-.2-1.7-.7a4.1 4.1 0 0 1-1.2-1.4 4 4 0 0 1-.4-2 19.5 19.5 0 0 1 .2-2.5Zm22 15.6L114 56l2.2-2.2-2.2-2.2-2.1 2.2zm-4.9 2.1 2.1-2.1-2.2-2.2-2.1 2.2 2.2 2.1zm25.1-27.5-2.2-2.3-2.3 2.3 2.3 2.3 2.2-2.3zm12.4 25.5 2.1 2.2 2.2-2.2-2.2-2.1-2.1 2.1zm-5-2.2-2.1 2.2 2.2 2.1 2.1-2.1-2.2-2.2zm25.1-30.3-2.3-2.3-2.2 2.2 2.2 2.3 2.3-2.2z" fill="#123520"/><path d="M153.9 47.2h6a23.5 23.5 0 0 0 4-.4 7.3 7.3 0 0 0 3-1.2 5.7 5.7 0 0 0 1.9-2.4 8.6 8.6 0 0 0 .7-3.8 21.8 21.8 0 0 0-.1-2.5 23.4 23.4 0 0 0-.4-2.6 8.8 8.8 0 0 0-.7-2.3 5 5 0 0 0-1.3-1.9 4.6 4.6 0 0 0-1.8-1.3 6.6 6.6 0 0 0-2.5-.5h-.2a5.3 5.3 0 0 0-2.5.5 5.6 5.6 0 0 0-2 1.4 9.8 9.8 0 0 0-1.3 2.2 7.5 7.5 0 0 0-.4 2.6 5.4 5.4 0 0 0 .5 2.7 4 4 0 0 0 1.5 1.9 5.5 5.5 0 0 0 2.3 1.1 8.5 8.5 0 0 0 2.9.4h2.1l1.7-.3a4.4 4.4 0 0 1-.8 2.3 3.4 3.4 0 0 1-1.6 1.3 10.3 10.3 0 0 1-2.2.5l-2.8.2h-10.2l-1.2-.6a5.3 5.3 0 0 1-.9-1.1 3.3 3.3 0 0 1-.3-1.5v-6.5h-2.1v6.3a6.2 6.2 0 0 1-.4 1.6 3.9 3.9 0 0 1-.8 1l-1.4.5-1.8.2h-7.3l-1.2-.6a5.3 5.3 0 0 1-.9-1.1 3.3 3.3 0 0 1-.3-1.5v-6.4h-2.2v11.2c0 2.6-.5 4.6-1.7 5.9s-3.2 2.1-6 2.1h-2.4v2.2h2.4c3.3 0 5.7-.9 7.4-2.6s2.5-4.3 2.5-7.6V46a5.6 5.6 0 0 0 1.7.9 7.1 7.1 0 0 0 2.1.3h5.9a9.6 9.6 0 0 0 3.2-.6 4 4 0 0 0 2.2-1.6 6 6 0 0 0 .8.8 6.4 6.4 0 0 0 1.8 1 8.5 8.5 0 0 0 2.2.4h2.9Zm12.7-8.5h-3.1l-2-.2a5.9 5.9 0 0 1-1.6-.7 2.2 2.2 0 0 1-1.1-1.2 3.6 3.6 0 0 1-.4-1.9 5.1 5.1 0 0 1 .3-1.7 3.7 3.7 0 0 1 .7-1.4 3.8 3.8 0 0 1 1.4-1.1 4.9 4.9 0 0 1 1.9-.4 3.3 3.3 0 0 1 1.7.4 2.8 2.8 0 0 1 1.3 1.1 3.8 3.8 0 0 1 .9 1.5c.2.5.3 1.1.5 1.7a11 11 0 0 1 .2 1.8c0 .6.1 1.2.1 1.7Zm19.6 5.3.6 1 .6.7a5.4 5.4 0 0 0 1.8 1.1 7.1 7.1 0 0 0 2.1.4h14.6l2.4-.4a7.2 7.2 0 0 0 2.2-.8 5.8 5.8 0 0 0 1.7-1.4 6.3 6.3 0 0 0 .9-2.2l1.6 2 1.8 1.6 2.2 1a8.8 8.8 0 0 0 2.4.3h5.7a10.2 10.2 0 0 0 3.3-.6 4.4 4.4 0 0 0 2.2-1.6 3 3 0 0 0 .8.8 5.2 5.2 0 0 0 1.8 1 7.8 7.8 0 0 0 2.2.4h5.5a9.1 9.1 0 0 0 3.2-.6 4.6 4.6 0 0 0 2.3-1.6 2.7 2.7 0 0 0 .7.8 6.9 6.9 0 0 0 1.9 1 7.8 7.8 0 0 0 2.2.4h6.3a9.1 9.1 0 0 0 3.2-.6 4.6 4.6 0 0 0 2.3-1.6 2 2 0 0 0 .8.8 5.2 5.2 0 0 0 1.8 1 7.8 7.8 0 0 0 2.2.4h4.4l1.9-.4a5.3 5.3 0 0 0 1.5-.8 5.7 5.7 0 0 0 1.1-1.1 4.9 4.9 0 0 0 2 1.8 5.4 5.4 0 0 0 2.5.6h9.8a10.4 10.4 0 0 0 2.8-.4 6.8 6.8 0 0 0 1.9-.8 4 4 0 0 0 1.2-1 3.7 3.7 0 0 0 .6-1 5.3 5.3 0 0 0 .4-1.8 6.3 6.3 0 0 0-.5-2.2 12.7 12.7 0 0 0-2.9-4.5c-1.7-1.8-3.2-3.2-4.5-4.4l-3-2.8 14.5-6.4-.8-1.9-16.2 6.8-.2 1.8.7.5 1.8 1.6 2.7 2.5c1 1 2.2 2.1 3.4 3.5a12.8 12.8 0 0 1 2.3 3.1 5.7 5.7 0 0 1 .6 2.1 2 2 0 0 1-.3 1.1 2.7 2.7 0 0 1-1.3 1.3 9.3 9.3 0 0 1-3.2.5h-9.6a3.8 3.8 0 0 1-2.6-1.1 3.5 3.5 0 0 1-.7-1.2 4.1 4.1 0 0 1-.3-1.6V22.4h-2.1v18.5a7.7 7.7 0 0 1-.2 1.5 2.4 2.4 0 0 1-.7 1.3 5 5 0 0 1-1.8 1 11.5 11.5 0 0 1-3 .3h-3.6l-1.2-.6a3.1 3.1 0 0 1-.8-1.1 2.4 2.4 0 0 1-.4-1.5v-6.4h-2.1v6.3a3.8 3.8 0 0 1-.4 1.6 3.9 3.9 0 0 1-.8 1 4.6 4.6 0 0 1-1.4.5l-1.8.2h-7.7l-1.2-.6a3.1 3.1 0 0 1-.8-1.1 2.4 2.4 0 0 1-.4-1.5v-6.4H247v6.3a3.8 3.8 0 0 1-.4 1.6 3.9 3.9 0 0 1-.8 1 4.6 4.6 0 0 1-1.4.5l-1.8.2h-6.8l-1.2-.6a2.4 2.4 0 0 1-.9-1.1 3.3 3.3 0 0 1-.4-1.5v-6.4h-2.1v6.3a3.8 3.8 0 0 1-.3 1.6 2.8 2.8 0 0 1-.9 1l-1.3.5-1.9.2h-5.3a8.8 8.8 0 0 1-2.4-.3 5.4 5.4 0 0 1-1.8-1.1 8.5 8.5 0 0 1-1.7-1.6l-1.8-2.4-4.2-5.6-4-5.4 15.1-6.8-.9-2-16.3 7.4-.4 1.6 1.2 1.5 1 1.4a14.7 14.7 0 0 0 1 1.3l.9 1.4a17.1 17.1 0 0 1 1.1 1.4l1.3 1.7a7.5 7.5 0 0 1 .7 1.2 13.9 13.9 0 0 1 .6 1.3 4.9 4.9 0 0 1 .1 1.2 2.8 2.8 0 0 1-.3 1.3 2.5 2.5 0 0 1-1.1 1.2 5.2 5.2 0 0 1-2 .7 12.1 12.1 0 0 1-3 .4h-13.3a3 3 0 0 1-1.3-.2 2.4 2.4 0 0 1-1.1-.6 3.6 3.6 0 0 1-.8-1.2 4.8 4.8 0 0 1-.3-1.8 4.1 4.1 0 0 1 .1-1.1 5 5 0 0 1 .2-1.2 5 5 0 0 0 .2-1.2l.3-1a3.1 3.1 0 0 0 .2-.8v-.3l-2-.6a.6.6 0 0 0-.1.4 3.4 3.4 0 0 0-.3.8l-.3 1.1a5.9 5.9 0 0 0-.2 1.3l-.3 1.3V41a8.1 8.1 0 0 0 .1 1.6c.2.6.4 1.1.5 1.4Zm37.3 9.9 2.1 2.1 2.2-2.1-2.2-2.2-2.1 2.2zm7 0 2.2 2.2 2.2-2.2-2.2-2.1-2.2 2.1z" fill="#123520"/><path fill="#123520" d="m248.9 27.5-2.3-2.3-2.2 2.2 2.3 2.3 2.2-2.2zm6.9 26.4L258 56l2.1-2.1-2.1-2.2-2.2 2.2zm7.1 0 2.2 2.2 2.1-2.2-2.2-2.1-2.1 2.1z"/></svg>