<svg fill="#3370fa" xmlns="http://www.w3.org/2000/svg" viewBox="0 0 1076.4 800"><path d="M.4 447.4c23.1-2.3 46.1-4.4 69.1-7.7 23-3.1 45.8-7.4 68.1-13.5 5.5-1.7 11.2-3.1 16.6-5.1l4.1-1.4c1.4-.5 2.8-.9 4.1-1.4l8.1-3.1 2-.8 2-.9 4-1.7c2.7-1.2 5.3-2.2 7.9-3.5l7.8-3.8c2.6-1.3 5.1-2.7 7.7-4 10.2-5.4 20.4-11.1 30.8-16.1 10.5-5 21.2-9.5 32.5-12.5 5.6-1.4 11.3-2.7 17.1-3.4 2.9-.4 5.8-.7 8.7-.9 1.4-.1 2.9-.2 4.3-.3 1.4 0 2.9-.2 4.3-.2 11.6-.3 23.2.5 34.7 2 11.5 1.5 22.9 3.7 34.2 6.2 11.3 2.5 22.6 5.3 33.8 8.2 22.4 5.8 44.7 12.2 67.2 17.9 22.5 5.7 45.1 10.8 68 13.9 22.9 3.2 46.2 4.4 69.3 2.6 23.1-1.8 46-6.7 67.3-15.7 21.4-8.9 41.5-20.6 63.4-28.5 21.9-7.8 45.4-10.8 68.6-9.2 11.6.7 23.1 2.2 34.5 4.4 11.4 2.2 22.6 5.1 33.8 8.2 22.3 6.4 44.1 14.4 66 21.9 11 3.8 22 7.4 33.1 10.8 11.1 3.3 22.3 6.2 33.7 8.6l4.3.9c1.4.3 2.8.6 4.3.8l8.6 1.4 8.6 1.1c1.4.2 2.9.3 4.3.4l4.3.3c11.6.8 23.2.7 34.7-.4-11.5 1.2-23.2 1.3-34.7.6l-4.3-.3c-1.4-.1-2.9-.2-4.3-.4l-8.6-1-8.6-1.4c-1.4-.2-2.9-.5-4.3-.8l-4.3-.8c-11.4-2.3-22.6-5.2-33.7-8.5-11.1-3.3-22.1-6.9-33.1-10.7-21.9-7.5-43.7-15.5-66-21.8-11.1-3.2-22.4-6-33.8-8.2-11.4-2.2-22.9-3.7-34.4-4.4-23.1-1.5-46.5 1.4-68.3 9.2-21.8 7.9-41.9 19.7-63.4 28.6-21.4 9-44.4 14-67.5 15.8-23.2 1.8-46.5.6-69.4-2.6-23-3.2-45.7-8.3-68.1-14-22.5-5.7-44.8-12.1-67.2-18-11.2-2.9-22.5-5.7-33.8-8.3-11.3-2.5-22.7-4.7-34.2-6.2-11.5-1.6-23.1-2.3-34.6-2.1-1.4 0-2.9.1-4.3.2-1.4 0-2.9.1-4.3.3-2.9.3-5.8.5-8.6.9-5.7.7-11.4 1.9-17 3.3-11.2 2.9-21.9 7.4-32.4 12.4-10.4 5-20.6 10.6-30.8 16-2.6 1.4-5.1 2.7-7.7 4l-7.8 3.8c-2.6 1.3-5.3 2.4-7.9 3.5l-4 1.7-2 .9-2 .8-8.1 3.1c-1.3.5-2.7 1-4.1 1.4l-4.1 1.4c-2.8.9-5.5 1.8-8.3 2.6l-8.4 2.4c-22.4 6-45.3 10.2-68.2 13.2-23 3.1-46.1 5.2-69.1 7.4Z"/><path d="M.4 456.9c23-1.8 46.1-3.8 69-6.9 22.9-3.1 45.7-7.4 68-13.5l8.3-2.5 4.2-1.2 4.1-1.4 8.2-2.8 8.1-3.1c1.3-.5 2.7-1 4-1.6l4-1.7 4-1.7c1.3-.6 2.7-1.1 3.9-1.8 5.2-2.6 10.4-5 15.5-7.8 10.2-5.4 20.3-11.1 30.6-16.3 10.3-5.2 21-9.9 32-13.4 11.1-3.5 22.5-5.5 34.1-6.6 5.8-.5 11.6-.7 17.3-.7 5.8 0 11.6.2 17.4.6 11.5.8 23 2.2 34.5 4 11.4 1.8 22.8 3.8 34.2 5.9 22.7 4.2 45.4 9 68 13.8 11.3 2.4 22.6 4.9 33.8 7.6 5.6 1.3 11.2 2.8 16.9 4l8.5 1.9 4.2 1 4.2.9c22.6 4.6 45.7 7.4 68.8 6.9 11.5-.2 23.1-1.4 34.4-3.5 5.7-1.1 11.3-2.4 16.8-4s11-3.5 16.4-5.5c21.6-8.2 42.2-19 64.2-26.2 11-3.6 22.3-6.2 33.8-7.8 11.5-1.6 23.1-2.2 34.6-1.8 11.6.4 23.1 1.8 34.5 4.1 11.4 2.2 22.6 5.2 33.6 8.5 22.2 6.6 43.9 14.5 65.9 21.8 11 3.7 22 7.1 33.1 10.2 11.1 3.1 22.4 5.8 33.7 8 22.7 4.4 46 6.2 69 3.9-23 2.4-46.3.6-69-3.7-11.4-2.1-22.6-4.8-33.8-7.9-11.2-3.1-22.2-6.5-33.2-10.1-22-7.2-43.7-15.1-65.9-21.7-11.1-3.3-22.3-6.3-33.6-8.5s-22.8-3.7-34.4-4c-11.5-.4-23.1.2-34.5 1.8-11.4 1.6-22.7 4.1-33.7 7.8-22 7.2-42.5 18.1-64.2 26.3-5.4 2-10.9 3.9-16.5 5.5s-11.2 2.9-16.9 4c-11.4 2.2-22.9 3.3-34.5 3.6-23.2.5-46.3-2.3-69-6.8l-4.2-.9-4.2-1-8.5-1.9c-5.7-1.2-11.3-2.7-16.9-4-11.2-2.7-22.5-5.3-33.8-7.7-22.6-4.8-45.2-9.6-68-13.8-11.4-2.1-22.7-4.1-34.2-5.9-11.4-1.8-22.9-3.2-34.4-4-5.8-.4-11.5-.6-17.3-.6-5.8 0-11.5.2-17.3.7-11.5 1-22.9 3-33.9 6.5-11 3.4-21.6 8.1-31.9 13.3-10.3 5.2-20.4 10.8-30.6 16.2-20.3 11.1-42.1 19.3-64.4 25.5-22.3 6.1-45.1 10.3-68.1 13.3-22.9 3.1-46 5-69 6.7Z"/><path d="M.3 466.3c23.1-1.4 46.1-3.2 69-6.3 11.5-1.5 22.9-3.4 34.2-5.6l8.5-1.7c2.8-.6 5.6-1.3 8.4-1.9 5.6-1.2 11.2-2.8 16.8-4.3 2.8-.8 5.5-1.7 8.3-2.5 2.8-.8 5.5-1.7 8.2-2.6l8.2-2.8c2.7-1 5.4-2.1 8.1-3.1l4-1.6c1.3-.6 2.6-1.2 4-1.7l7.9-3.5 7.8-3.8c1.3-.6 2.6-1.3 3.9-1.9l3.8-2c10.2-5.4 20.3-11.1 30.5-16.5 10.3-5.3 20.7-10.3 31.6-14.2l4.1-1.4c1.4-.5 2.8-.8 4.2-1.3 2.8-.9 5.6-1.5 8.4-2.3 5.6-1.3 11.3-2.5 17-3.2 11.5-1.7 23-2.2 34.6-2.2 11.6 0 23.1.7 34.6 1.7s23 2.1 34.5 3.3c23 2.5 45.9 5.6 68.7 9.5 11.4 2 22.7 4.5 33.9 7.5 11.1 3.2 22.2 6.6 33.3 9.6 22.3 6 45.1 10.5 68.1 11.4 11.5.4 23.1-.2 34.5-1.9 5.7-.9 11.4-2 16.9-3.4 5.6-1.4 11.1-3.1 16.6-4.9 21.9-7.4 42.8-17.4 65-24.2 11.1-3.4 22.4-5.9 33.8-7.7 11.4-1.8 23-2.8 34.6-2.6 11.6.1 23.1 1.5 34.4 3.8 11.3 2.3 22.5 5.5 33.5 8.9 5.5 1.7 11 3.4 16.5 5.2l16.5 5.4c11 3.7 21.9 7.4 32.9 10.9 22 7 44.4 13.1 67.1 17 22.7 4 46 5.6 69 3.4-23 2.3-46.3.8-69-3.1-22.8-3.9-45.2-9.9-67.2-16.8-11-3.5-22-7.2-32.9-10.8l-16.5-5.4c-5.5-1.8-11-3.5-16.5-5.2-11-3.4-22.2-6.5-33.5-8.8-11.3-2.3-22.8-3.7-34.3-3.8-11.5-.1-23.1.9-34.5 2.7-11.4 1.8-22.7 4.3-33.7 7.7-22.1 6.8-43 16.8-64.9 24.2-5.5 1.9-11 3.5-16.6 5-5.6 1.4-11.3 2.6-17 3.4-11.4 1.7-23.1 2.3-34.6 1.9-23.2-.9-46-5.3-68.3-11.3-11.1-3.1-22.2-6.5-33.3-9.7-11.1-3.1-22.4-5.5-33.8-7.6-22.8-3.9-45.7-7-68.6-9.6-11.5-1.3-23-2.4-34.5-3.4s-23-1.7-34.6-1.8c-11.5 0-23.1.5-34.5 2.2-5.7.8-11.4 1.9-17 3.2-2.8.7-5.6 1.4-8.3 2.3-1.4.4-2.8.8-4.1 1.3l-4.1 1.4c-10.9 3.9-21.3 8.8-31.6 14.1-10.3 5.3-20.3 11-30.5 16.4l-3.8 2c-1.3.7-2.6 1.3-3.9 1.9l-7.8 3.8-7.9 3.5c-1.3.6-2.6 1.2-4 1.7l-4 1.6c-2.7 1-5.4 2.1-8.1 3.1l-8.2 2.8c-2.7 1-5.5 1.8-8.3 2.6-2.8.8-5.5 1.7-8.3 2.5-5.6 1.5-11.2 3-16.8 4.3-2.8.6-5.6 1.4-8.5 1.9l-8.5 1.7c-11.4 2.2-22.8 4-34.2 5.5-22.9 3-46 4.7-69 6Z"/><path d="M.3 475.7c23.1-1 46.2-2.5 69.1-5.6 11.5-1.4 22.9-3.4 34.2-5.6l8.5-1.8 2.1-.4 2.1-.5 4.2-1c5.6-1.3 11.2-2.9 16.8-4.4 11.1-3.3 22.1-6.8 32.8-11.1 5.4-2 10.6-4.5 15.9-6.8 2.6-1.2 5.2-2.6 7.8-3.8l3.9-1.9c1.3-.7 2.6-1.3 3.8-2 20.4-10.9 40.2-23 61.8-31.5 10.8-4.2 21.9-7.5 33.3-9.7 5.7-1.2 11.4-2 17.1-2.7 5.7-.7 11.5-1.2 17.3-1.5 11.6-.7 23.1-.8 34.7-.6 11.6.2 23.1.3 34.7.7 23.1.7 46.2 2.1 69.2 5.2 11.5 1.7 22.8 4.1 33.9 7.6 11 3.6 21.8 7.9 32.7 11.6 21.8 7.5 44.2 13.7 67.2 16.1 11.5 1.1 23.1 1.1 34.5-.2 5.7-.6 11.4-1.6 17.1-2.8 5.6-1.2 11.2-2.7 16.7-4.4 22.1-6.7 43.4-15.9 65.6-22.4 11.1-3.3 22.4-5.8 33.8-7.9 11.4-2 22.9-3.5 34.5-3.5 5.8 0 11.6.2 17.3.9 5.8.6 11.5 1.6 17.1 2.8 11.3 2.4 22.4 5.7 33.5 9.2 11 3.5 22 7.1 33 10.7 11 3.6 21.9 7.3 33 10.6 11 3.4 22.2 6.4 33.4 9.1 11.2 2.7 22.6 5 34 6.8 22.8 3.7 46.1 5 69.1 2.9-23 2.2-46.3.9-69.1-2.7-11.4-1.8-22.8-4.1-34-6.7-11.3-2.7-22.4-5.7-33.5-9-11.1-3.3-22.1-7-33-10.6-11-3.6-22-7.2-33-10.6-11-3.5-22.1-6.8-33.4-9.1-5.6-1.2-11.3-2.2-17.1-2.8-5.7-.6-11.5-.9-17.3-.9-11.5 0-23 1.5-34.4 3.6-11.4 2.1-22.6 4.6-33.7 7.9-22.2 6.5-43.5 15.7-65.6 22.4-5.5 1.7-11.1 3.2-16.8 4.4-5.7 1.2-11.4 2.2-17.1 2.8-11.5 1.3-23.2 1.3-34.7.2-23.1-2.3-45.6-8.5-67.4-16.1-10.9-3.8-21.7-8-32.7-11.6-11-3.5-22.3-6-33.7-7.6-22.9-3.1-46-4.6-69.1-5.3-11.6-.4-23.1-.5-34.7-.7-11.6-.2-23.1 0-34.6.6-23 1.3-46.1 5.3-67.6 13.8-21.5 8.4-41.4 20.5-61.8 31.4-1.3.7-2.5 1.4-3.8 2l-3.9 1.9c-2.6 1.3-5.2 2.6-7.8 3.8-5.3 2.3-10.5 4.8-16 6.8-10.7 4.4-21.8 7.9-32.9 11.1-5.6 1.5-11.2 3.1-16.8 4.3l-4.2 1-2.1.5-2.1.4-8.5 1.7c-11.4 2.2-22.8 4.1-34.3 5.5-22.9 3-46 4.5-69.1 5.4Z"/><path d="M.3 485.1c23.2-.5 46.3-1.9 69.3-4.9 11.5-1.4 22.9-3.4 34.3-5.6 5.7-1.2 11.3-2.3 17-3.8l4.2-1 2.1-.5 2.1-.6 8.4-2.3c11.1-3.3 22.1-6.9 32.8-11.3 5.4-2.1 10.7-4.5 15.9-6.9 1.3-.6 2.6-1.2 3.9-1.9l3.9-1.9c2.6-1.3 5.2-2.6 7.7-4 10.2-5.5 20.3-11.2 30.4-16.8 10.2-5.6 20.5-10.9 31.2-15.5 10.7-4.5 21.7-8.2 33-11 5.6-1.4 11.3-2.6 17-3.6 5.7-1 11.4-1.9 17.2-2.6 11.5-1.4 23.1-2.3 34.6-3.1 11.6-.7 23.1-1.5 34.7-2.1 11.6-.6 23.2-1 34.8-.9 5.8 0 11.6.2 17.4.5 5.8.3 11.6.7 17.4 1.4 11.5 1.4 23 3.8 33.9 7.8 2.7 1 5.4 2.1 8.1 3.2l8 3.5c5.3 2.3 10.6 4.7 15.9 7 10.6 4.6 21.4 8.8 32.4 12.5 5.5 1.8 11 3.5 16.6 4.9 5.6 1.4 11.2 2.7 17 3.6 5.7.9 11.5 1.5 17.2 1.7 5.8.2 11.6.2 17.3-.2 11.5-.8 22.9-3 34.1-5.9 22.4-5.9 44-14.4 66.3-20.8 11.1-3.2 22.4-5.9 33.8-8.3 11.3-2.4 22.9-4.2 34.5-4.5 11.6-.3 23.2 1.1 34.5 3.6s22.4 6 33.5 9.5l33.1 10.7c11 3.6 22 7.1 33.2 10.4 11.1 3.3 22.4 6.1 33.7 8.6 11.3 2.5 22.7 4.7 34.2 6.3 22.9 3.3 46.2 4.4 69.3 2.4-23.1 2.1-46.4 1-69.3-2.2-11.5-1.6-22.9-3.7-34.2-6.2-11.3-2.5-22.6-5.3-33.7-8.5-11.1-3.2-22.2-6.7-33.2-10.3l-33.1-10.6c-11-3.5-22.1-7-33.4-9.5-11.3-2.5-22.8-3.9-34.4-3.6-11.6.3-23 2.1-34.4 4.5-11.3 2.4-22.6 5.1-33.7 8.3-22.3 6.4-43.9 14.9-66.3 20.9-11.2 3-22.7 5.2-34.3 6-5.8.4-11.6.5-17.4.2-5.8-.2-11.6-.8-17.3-1.7-5.7-.9-11.4-2.2-17-3.6s-11.2-3.1-16.7-4.9c-11-3.6-21.8-7.9-32.5-12.5-5.3-2.3-10.6-4.7-15.9-7l-8-3.5c-2.7-1.1-5.4-2.2-8.1-3.2-10.8-4-22.2-6.5-33.7-7.8-5.7-.7-11.5-1.1-17.3-1.4-5.8-.3-11.6-.4-17.4-.5-11.6 0-23.2.3-34.7.9-11.6.6-23.1 1.4-34.7 2.1-11.6.7-23.1 1.6-34.6 3-5.7.7-11.5 1.6-17.2 2.6-5.7 1-11.4 2.2-17 3.6-11.2 2.8-22.2 6.4-32.9 11-10.7 4.5-20.9 9.9-31.1 15.4-10.2 5.5-20.2 11.3-30.5 16.8-2.5 1.4-5.2 2.7-7.7 4l-3.9 1.9c-1.3.6-2.6 1.3-3.9 1.9-5.3 2.3-10.6 4.8-16 6.9-10.7 4.4-21.8 8-32.9 11.3l-8.4 2.3-2.1.6-2.1.5-4.2 1c-5.6 1.4-11.3 2.5-17 3.7-11.4 2.2-22.8 4.1-34.3 5.5-23 2.9-46.2 4.2-69.3 4.7Z"/><path d="M.3 494.5c23.3-.1 46.5-1.3 69.6-4.3 11.5-1.4 23-3.3 34.4-5.6 5.7-1.2 11.4-2.4 17-3.8l4.2-1 2.1-.5 2.1-.6 8.4-2.4 2.1-.6 2.1-.7 4.2-1.3 4.2-1.3 2.1-.7 2.1-.7 8.2-3 2-.7 2-.8 4-1.6c5.4-2.1 10.7-4.6 16-7 1.3-.6 2.6-1.2 3.9-1.9l3.9-2c2.6-1.3 5.2-2.6 7.8-4 20.5-11 40.3-23.4 61.5-33.1 10.6-4.9 21.5-8.9 32.7-12.3 11.2-3.3 22.5-6 34-8.1 11.4-2.2 23-3.9 34.5-5.5s23-3.4 34.5-5 23.1-2.9 34.7-3.5c5.8-.3 11.6-.5 17.5-.5 5.8 0 11.7.2 17.5.7 11.6 1.1 23.1 3.6 33.9 8.3 1.3.6 2.7 1.2 4 1.8 1.3.6 2.7 1.2 4 1.9l7.8 4 7.8 4 7.7 4.1c10.3 5.4 20.8 10.5 31.5 15 5.4 2.2 10.8 4.3 16.3 6.2 5.5 1.9 11.1 3.5 16.7 4.7 11.3 2.5 23 3.5 34.6 3.2 11.6-.3 23.1-2.1 34.5-4.6 11.3-2.5 22.5-5.8 33.6-9.2l16.7-5.1 8.3-2.6 4.2-1.3 4.2-1.2 16.8-4.6c5.6-1.5 11.3-3 16.9-4.3 11.3-2.8 22.8-5 34.5-5.5 11.7-.6 23.3 1 34.7 3.6 11.4 2.6 22.4 6.2 33.5 9.8l33.2 10.7c11.1 3.6 22.2 7 33.4 10.1 11.2 3.1 22.5 5.8 33.9 8.1 11.4 2.3 22.9 4.3 34.4 5.8 23.1 3 46.4 3.9 69.6 2-23.2 2-46.6 1.1-69.7-1.8-11.5-1.5-23-3.4-34.4-5.7-11.4-2.3-22.8-4.9-34-8-11.2-3.1-22.3-6.6-33.4-10.1l-33.2-10.6c-11.1-3.6-22.1-7.2-33.5-9.8-11.3-2.6-22.9-4.1-34.5-3.5-11.6.5-23.1 2.8-34.3 5.5-5.6 1.4-11.3 2.8-16.9 4.4l-16.8 4.6-4.2 1.2-4.2 1.3-8.3 2.6-16.7 5.1c-11.1 3.4-22.3 6.7-33.7 9.3-11.4 2.6-22.9 4.4-34.6 4.7-11.7.3-23.4-.7-34.8-3.2-5.7-1.2-11.3-2.9-16.8-4.8s-11-4-16.3-6.2c-10.8-4.5-21.2-9.6-31.5-15l-7.7-4.1-7.7-4-7.7-4c-1.3-.7-2.6-1.2-3.9-1.9-1.3-.6-2.6-1.2-4-1.8-10.6-4.6-22.1-7.1-33.6-8.2-5.8-.6-11.6-.7-17.4-.7-5.8 0-11.6.1-17.4.5-11.6.6-23.2 1.9-34.7 3.5-11.5 1.6-23 3.4-34.5 5s-23 3.3-34.4 5.5c-11.4 2.1-22.8 4.8-33.9 8.1-11.1 3.3-22 7.4-32.6 12.2-21.2 9.7-41 22-61.5 33-2.5 1.4-5.2 2.7-7.8 4l-3.9 2c-1.3.7-2.6 1.3-3.9 1.9-5.3 2.4-10.6 4.9-16 6.9-10.8 4.4-21.8 8.1-33 11.4l-8.4 2.3-2.1.6-2.1.5-4.2 1c-5.6 1.5-11.3 2.6-17 3.8-11.4 2.2-22.9 4.1-34.5 5.5-23.1 2.9-46.4 4-69.6 4Z"/><path d="M.2 503.9c23.4.3 46.8-.7 70-3.6 11.6-1.4 23.2-3.4 34.6-5.6l8.6-1.9 2.1-.5 2.1-.5 4.3-1.1 4.3-1.1 2.1-.5 2.1-.6 8.4-2.4c11.2-3.4 22.3-7.2 33.1-11.7 5.4-2.1 10.7-4.6 16.1-7.1 1.3-.6 2.6-1.3 3.9-1.9l3.9-2c2.6-1.3 5.2-2.6 7.8-4 20.6-11.1 40.4-23.6 61.5-33.9 10.5-5.1 21.4-9.6 32.4-13.5 11.1-3.9 22.3-7.1 33.7-10 11.3-2.9 22.8-5.5 34.2-8 11.4-2.5 22.8-5.4 34.2-7.9 11.4-2.5 22.9-4.8 34.6-6.2 5.8-.7 11.7-1.2 17.5-1.4 5.8-.3 11.7-.3 17.6.2 11.7.9 23.4 3.5 33.9 8.8 10.6 5.1 20.2 11.8 30.2 17.9 9.9 6.2 20 12.2 30.4 17.5 5.2 2.7 10.5 5.2 15.8 7.5 5.4 2.3 10.8 4.3 16.5 5.9 11.2 3.2 22.9 4.8 34.5 5 5.8 0 11.7-.2 17.5-.8 5.8-.6 11.6-1.5 17.3-2.5 5.7-1.1 11.4-2.4 17.1-3.8 5.7-1.4 11.3-2.9 16.9-4.6l33.7-9.8 33.7-9.7c11.3-3.2 22.7-5.9 34.5-6.6 5.9-.4 11.7-.2 17.6.4 5.8.6 11.6 1.7 17.3 3 11.4 2.7 22.5 6.4 33.6 10.1 11.1 3.6 22.3 7.1 33.4 10.7 11.2 3.5 22.4 6.9 33.7 9.9 11.3 3 22.7 5.5 34.2 7.6 11.5 2.2 23.1 4 34.7 5.3 23.2 2.7 46.7 3.4 70.1 1.6-23.3 1.9-46.8 1.2-70.1-1.4-11.6-1.3-23.2-3.1-34.7-5.2-11.5-2.2-23-4.6-34.3-7.5-11.3-3-22.5-6.4-33.7-9.9-11.2-3.5-22.3-7-33.5-10.6-11.1-3.6-22.2-7.4-33.6-10-11.4-2.7-23.1-4.2-34.7-3.4-11.7.7-23.1 3.4-34.3 6.6l-33.7 9.7-33.7 9.9c-5.6 1.7-11.3 3.2-16.9 4.6-5.7 1.4-11.4 2.7-17.2 3.8-5.8 1.1-11.6 2-17.4 2.6-5.8.6-11.7.9-17.6.8-11.7-.2-23.4-1.8-34.7-5-5.6-1.6-11.2-3.6-16.6-5.9-5.4-2.3-10.7-4.8-15.9-7.5-10.4-5.4-20.5-11.4-30.4-17.6-10-6.1-19.6-12.8-30.1-17.9-10.4-5.2-22-7.8-33.6-8.7-5.8-.5-11.7-.5-17.5-.2-5.8.3-11.7.7-17.5 1.4-11.6 1.3-23.1 3.6-34.5 6.1-11.4 2.5-22.8 5.4-34.2 7.9-11.4 2.5-22.8 5.1-34.2 8-11.3 2.9-22.6 6.2-33.6 10s-21.9 8.3-32.4 13.4c-21.1 10.2-40.9 22.7-61.5 33.8-2.6 1.4-5.2 2.7-7.8 4l-3.9 2c-1.3.7-2.6 1.3-3.9 1.9-5.3 2.4-10.6 4.9-16.1 7.1-10.8 4.5-21.9 8.3-33.1 11.7l-8.4 2.4-2.1.6-2.1.5-4.3 1.1-4.3 1.1-2.1.5-2.1.5-8.6 1.8c-11.5 2.3-23 4.2-34.7 5.5-23.2 2.9-46.7 3.8-70.1 3.4Z"/><path d="M.2 513.4c23.6.7 47.2 0 70.6-3l4.4-.5 2.2-.3 2.2-.3 8.7-1.3 2.2-.3 2.2-.4 4.3-.8c2.9-.6 5.8-1 8.7-1.7l8.6-1.9c1.4-.3 2.9-.7 4.3-1l4.3-1.1c5.7-1.4 11.4-3.1 17-4.7 11.2-3.5 22.4-7.3 33.2-12 5.5-2.2 10.8-4.7 16.1-7.2 1.3-.6 2.6-1.3 4-2l3.9-2c2.6-1.3 5.3-2.7 7.8-4.1 20.7-11.3 40.6-23.9 61.6-34.7 10.5-5.4 21.2-10.3 32.2-14.6 11-4.4 22.1-8.3 33.3-11.9 11.2-3.7 22.5-7.1 33.8-10.5 11.3-3.5 22.4-7.4 33.6-10.9 5.6-1.8 11.3-3.4 17-4.9 5.7-1.5 11.5-2.8 17.3-3.8 2.9-.6 5.8-1 8.7-1.4 2.9-.3 5.9-.7 8.8-1 5.9-.6 11.8-.7 17.7-.4 11.8.7 23.6 3.6 33.9 9.5 2.5 1.5 5.1 2.9 7.6 4.6 2.5 1.6 4.9 3.3 7.3 5l14.3 10.5c9.5 7 19.1 13.8 29.1 20.1 5 3.1 10.1 6.1 15.3 8.8 5.2 2.8 10.6 5.1 16.1 7.1 5.5 2 11.2 3.5 17 4.6 5.8 1.2 11.6 1.9 17.5 2.3 11.7.7 23.5-.1 35.2-1.9 11.6-1.7 23.1-4.4 34.5-7.4 11.4-3 22.7-6.4 34-9.7l16.9-5.1c5.6-1.7 11.2-3.6 16.8-5.4 11.2-3.6 22.7-6.8 34.5-7.7 5.9-.5 11.8-.4 17.7.3 5.9.6 11.7 1.7 17.4 3.1 11.5 2.8 22.6 6.6 33.8 10.3 5.6 1.9 11.2 3.6 16.8 5.4l16.9 5.3c11.3 3.5 22.6 6.8 34 9.7 11.4 2.9 23 5.2 34.6 7.2 11.6 2 23.3 3.7 35 4.9 23.4 2.4 47.1 3 70.6 1.2-23.5 1.8-47.2 1.3-70.6-1-11.7-1.2-23.4-2.8-35-4.8-11.6-2-23.2-4.2-34.6-7.1-11.4-2.9-22.8-6.2-34-9.7l-16.9-5.3c-5.6-1.8-11.3-3.5-16.9-5.4-11.2-3.7-22.3-7.6-33.8-10.3-5.7-1.4-11.5-2.5-17.4-3.1-5.8-.6-11.7-.7-17.6-.2-11.7 1-23.1 4.1-34.3 7.7-5.6 1.8-11.2 3.7-16.8 5.4l-16.9 5.1c-11.3 3.4-22.6 6.8-34 9.8-11.4 3-22.9 5.7-34.6 7.4-11.7 1.7-23.5 2.6-35.3 1.9-5.9-.3-11.8-1.1-17.6-2.3-5.8-1.1-11.5-2.7-17.1-4.7-5.6-1.9-11-4.3-16.2-7.1-5.2-2.7-10.3-5.7-15.4-8.8-10-6.2-19.6-13.1-29.1-20.1l-14.3-10.5c-2.4-1.7-4.8-3.4-7.3-5-2.4-1.6-5-3-7.5-4.6-10.2-5.8-21.9-8.7-33.6-9.4-5.9-.4-11.7-.2-17.6.4-2.9.2-5.8.6-8.8.9-2.9.4-5.8.8-8.7 1.4-5.8 1-11.5 2.3-17.2 3.8-5.7 1.5-11.4 3.1-17 4.9-11.2 3.5-22.4 7.4-33.7 10.9-11.3 3.5-22.6 6.9-33.8 10.5-11.2 3.6-22.3 7.5-33.3 11.9-10.9 4.3-21.7 9.2-32.2 14.6-21 10.7-40.9 23.4-61.7 34.6-2.6 1.4-5.2 2.7-7.8 4.1l-3.9 2c-1.3.7-2.6 1.4-4 2-5.4 2.4-10.7 5-16.2 7.2-10.9 4.6-22 8.4-33.3 11.9-5.7 1.6-11.3 3.3-17.1 4.7l-4.3 1.1c-1.4.4-2.9.7-4.3 1l-8.6 1.9c-2.9.7-5.8 1.1-8.7 1.7l-4.3.8-2.2.4-2.2.3-8.7 1.3-2.2.3-2.2.3-4.4.5c-23.4 2.9-47 3.6-70.6 2.8Z"/><path d="M.2 522.8c23.7 1.2 47.6.5 71.2-2.4 23.6-2.8 46.9-7.8 69.7-14.8 2.8-.9 5.6-1.9 8.5-2.8 2.8-.9 5.6-1.9 8.4-2.9l8.3-3.1c2.8-1.1 5.5-2.3 8.2-3.4l4.1-1.7c1.4-.6 2.7-1.2 4.1-1.8l8.1-3.8c2.7-1.3 5.3-2.7 7.9-4 2.6-1.4 5.3-2.7 7.9-4.2 20.8-11.4 40.9-24.3 61.8-35.6 10.5-5.6 21.1-11 32-15.8 10.8-4.9 21.9-9.4 32.9-13.8 11.1-4.4 22.2-8.6 33.2-13.1 11-4.4 21.9-9.4 32.9-13.8 11-4.5 22.3-8.4 33.9-11.2 5.8-1.3 11.7-2.5 17.6-3.2 5.9-.8 11.9-1.1 17.9-.9 3 .2 6 .4 8.9.9 2.9.5 5.9 1.1 8.7 2 2.9.9 5.7 1.8 8.4 3.1 1.4.6 2.7 1.3 4 2 1.3.8 2.6 1.5 3.8 2.3 2.5 1.6 5 3.2 7.4 5 2.4 1.8 4.7 3.7 7 5.6 4.6 3.8 9.1 7.7 13.6 11.6 9 7.7 18.1 15.4 27.6 22.5 4.8 3.5 9.6 6.9 14.7 10.1 5 3.2 10.3 5.9 15.7 8.3 10.9 4.7 22.5 7.6 34.3 8.9 5.9.7 11.8.9 17.8.8 5.9 0 11.9-.5 17.8-1.1 11.8-1.3 23.5-3.6 35-6.4 5.8-1.4 11.5-2.9 17.2-4.5 5.7-1.6 11.4-3.3 17.1-5.1l17-5.3c5.6-1.9 11.2-3.9 16.8-5.9 11.2-4 22.6-7.7 34.5-8.9 5.9-.6 11.9-.6 17.9 0 5.9.6 11.8 1.7 17.6 3.1 11.6 2.8 22.8 6.8 34.1 10.6 5.6 1.9 11.3 3.6 17 5.4l17 5.3c11.4 3.5 22.8 6.8 34.4 9.5 11.5 2.8 23.3 4.9 35 6.8 11.7 1.9 23.5 3.4 35.4 4.4 23.7 2.1 47.5 2.5 71.3.8-23.7 1.8-47.6 1.4-71.3-.6-11.8-1-23.7-2.5-35.4-4.3-11.7-1.9-23.5-3.9-35-6.7-11.6-2.8-23-6-34.4-9.5l-17-5.3c-5.7-1.8-11.4-3.5-17-5.4-11.3-3.8-22.5-7.7-34-10.5-5.8-1.4-11.6-2.5-17.5-3.1-5.9-.6-11.9-.6-17.7 0-11.8 1.2-23.2 4.9-34.4 8.9-5.6 2-11.2 4.1-16.8 6l-17 5.3c-5.7 1.8-11.4 3.5-17.1 5.1-5.7 1.6-11.5 3.2-17.3 4.6-11.6 2.8-23.3 5.1-35.1 6.5-5.9.7-11.9 1.1-17.8 1.2-6 0-11.9-.1-17.9-.8-11.9-1.3-23.5-4.2-34.5-8.9-5.5-2.3-10.8-5.1-15.8-8.3-5.1-3.2-10-6.6-14.7-10.1-9.6-7.1-18.7-14.8-27.7-22.5-4.5-3.9-9-7.8-13.6-11.6-2.3-1.9-4.6-3.8-7-5.5-2.3-1.8-4.9-3.4-7.3-5-1.2-.8-2.5-1.5-3.8-2.3-1.3-.7-2.6-1.4-4-2-2.7-1.3-5.5-2.2-8.3-3.1-2.8-.9-5.7-1.4-8.6-1.9-2.9-.5-5.9-.7-8.8-.9-5.9-.3-11.8 0-17.7.8-5.9.7-11.7 1.9-17.5 3.2-11.5 2.7-22.8 6.7-33.8 11.1-11 4.4-21.9 9.3-32.9 13.8-11 4.4-22.2 8.7-33.2 13-22.1 8.7-44 18.2-64.9 29.5-20.9 11.3-41 24.1-61.9 35.5-2.6 1.4-5.2 2.8-7.9 4.2-2.7 1.3-5.3 2.7-8 4l-8.1 3.8c-1.4.6-2.7 1.3-4.1 1.8l-4.1 1.7c-2.8 1.1-5.5 2.3-8.2 3.4l-8.4 3.1c-2.8 1.1-5.6 2-8.4 2.9-2.8.9-5.6 1.9-8.5 2.8-22.8 6.9-46.1 11.9-69.8 14.6C48 523.7 24.1 524.2.4 523Z"/><path d="m.2 532.2 9 .5c1.5 0 3 .2 4.5.2h4.5c3 .1 6 .3 9 .2h9c12-.5 24-1.2 35.9-2.7 23.9-2.7 47.4-8 70.3-15.2l8.5-2.9 4.3-1.4 4.2-1.6 8.4-3.2 8.3-3.5 4.1-1.8 4.1-1.9 8.1-3.8 8-4.1 4-2.1 3.9-2.2c21-11.7 41.2-24.7 62.1-36.6 20.9-12 42.5-22.5 64.3-32.7 10.9-5.1 21.7-10.2 32.5-15.6 10.7-5.4 21.2-11.3 32-16.6 5.4-2.7 10.8-5.2 16.4-7.5 5.6-2.3 11.2-4.3 17-6.1 5.8-1.7 11.7-3.1 17.6-4.1 3-.5 6-.9 9-1.1 3-.2 6-.3 9-.2 6 .2 12.1 1.2 17.8 3 2.9.9 5.7 2.1 8.4 3.4 2.7 1.4 5.3 2.9 7.7 4.8 5 3.4 9.5 7.5 13.9 11.6l12.9 12.6c8.5 8.5 17 17 26.1 24.9 9.1 7.8 18.5 15.4 29.2 20.8s22.2 9 34.1 11c5.9 1 11.9 1.5 17.9 1.7 6 .2 12 0 18-.4 12-.9 23.8-2.8 35.5-5.4 11.7-2.6 23.3-5.9 34.8-9.4 5.7-1.8 11.4-3.7 17.1-5.7 5.7-2 11.2-4.3 16.8-6.5 11.1-4.4 22.5-8.7 34.5-10.3 6-.8 12-.8 18-.3s11.9 1.6 17.8 3c11.7 2.9 23 7 34.4 10.8 5.7 1.9 11.4 3.7 17.2 5.5 5.7 1.8 11.5 3.6 17.2 5.3 11.5 3.5 23.1 6.7 34.8 9.4 11.7 2.7 23.6 4.7 35.4 6.4 11.9 1.7 23.8 3.1 35.8 4 24 1.9 48 2.1 72 .5-24 1.7-48.1 1.5-72-.3-12-.9-23.9-2.2-35.8-3.9-11.9-1.7-23.8-3.6-35.5-6.3-11.7-2.7-23.3-5.9-34.8-9.3-5.8-1.7-11.5-3.5-17.2-5.3-5.7-1.8-11.5-3.5-17.2-5.4-11.4-3.8-22.7-7.9-34.4-10.8-5.8-1.4-11.7-2.5-17.7-3s-12-.4-17.9.3c-11.9 1.5-23.2 5.8-34.4 10.3-5.6 2.2-11.1 4.5-16.8 6.5-5.7 2-11.4 3.9-17.1 5.7-11.5 3.6-23.1 6.8-34.8 9.5-11.7 2.6-23.6 4.6-35.6 5.5-6 .5-12 .6-18 .4-6-.2-12-.7-18-1.7-11.9-1.9-23.5-5.6-34.3-11-5.4-2.7-10.6-5.9-15.4-9.5-4.8-3.6-9.5-7.4-14.1-11.3-9.1-7.9-17.6-16.4-26.1-24.9-4.3-4.2-8.5-8.5-12.8-12.7-4.3-4.1-8.8-8.2-13.8-11.5-2.4-1.8-5-3.3-7.6-4.7-2.7-1.3-5.4-2.5-8.3-3.4-5.7-1.8-11.6-2.8-17.6-3-3-.1-6 0-9 .2s-6 .6-8.9 1.1c-5.9 1-11.7 2.4-17.5 4-5.7 1.7-11.4 3.8-16.9 6-5.6 2.3-11 4.8-16.4 7.5-10.8 5.3-21.3 11.2-32 16.6-10.8 5.4-21.6 10.5-32.5 15.6-21.7 10.2-43.4 20.7-64.3 32.6-20.9 11.9-41.1 24.9-62.2 36.5l-4 2.2-4 2.1-8 4.1-8.2 3.8-4.1 1.9-4.2 1.8-8.3 3.5-8.4 3.2-4.2 1.6-4.3 1.4-8.5 2.9c-23 7.1-46.5 12.3-70.4 15-11.9 1.5-23.9 2.2-36 2.5h-9c-3 .1-6 0-9 0h-4.5c-1.5-.1-3-.3-4.5-.3l-9-.5Z"/><path d="M.1 541.6c48.5 4.3 97.7-1.9 143.9-16.9 23.1-7.7 45.5-17.4 66.6-29.3 21.2-11.9 41.6-25.2 62.5-37.7 20.8-12.6 42.3-24.1 63.5-35.9 10.6-5.9 21.2-11.8 31.6-18.2 10.4-6.3 20.5-13.1 31-19.3 5.2-3.1 10.6-6 16-8.7 5.5-2.7 11.1-5 16.8-7.1 5.8-2 11.6-3.6 17.6-4.9 6-1.2 12.1-1.9 18.2-1.7 1.5 0 3.1.2 4.6.3 1.5.2 3 .3 4.5.6 3 .5 6 1.3 8.9 2.3 2.9 1 5.7 2.3 8.4 3.8l2 1.2c.7.4 1.3.9 1.9 1.3 1.3.8 2.5 1.8 3.7 2.8 1.2 1 2.4 1.9 3.6 2.9 1.1 1 2.3 2 3.4 3.1 2.2 2.1 4.3 4.3 6.4 6.6 4.1 4.5 8.1 9.1 12.1 13.7 8 9.2 15.9 18.4 24.4 27.1 8.5 8.6 17.4 17 27.9 23.1 10.4 6.2 21.9 10.6 33.7 13.1 11.8 2.6 24 3.4 36.2 3 12.1-.4 24.2-2 36.1-4.4 11.9-2.4 23.7-5.6 35.2-9.2 5.8-1.8 11.5-3.8 17.2-6 5.7-2.1 11.2-4.6 16.8-7 11.1-4.9 22.4-9.7 34.5-11.7 6-1 12.2-1.2 18.2-.7 6.1.4 12.1 1.5 18 2.9 11.9 2.9 23.3 7.2 34.8 11.1 5.7 2 11.6 3.7 17.4 5.5 5.8 1.8 11.6 3.6 17.4 5.3 11.7 3.4 23.4 6.7 35.3 9.3 11.9 2.7 23.9 4.4 35.9 6 12.1 1.6 24.2 2.8 36.3 3.6 24.3 1.6 48.6 1.7 72.9.1-24.3 1.6-48.6 1.6-72.9 0-12.1-.8-24.2-2-36.3-3.5-12.1-1.6-24.1-3.3-36-5.9-11.9-2.6-23.6-5.8-35.3-9.2-5.8-1.7-11.6-3.5-17.5-5.3-5.8-1.8-11.6-3.5-17.4-5.5-11.5-3.9-22.9-8.2-34.7-11-5.9-1.4-11.9-2.5-17.9-2.9-6-.4-12.1-.2-18.1.7-12 2-23.3 6.8-34.4 11.7-5.6 2.4-11.1 4.9-16.8 7.1-5.7 2.2-11.4 4.1-17.2 6-11.6 3.7-23.4 6.9-35.3 9.3-11.9 2.4-24 4-36.2 4.4-12.2.4-24.4-.4-36.3-3-11.9-2.6-23.5-7-34-13.2-5.2-3.1-10.2-6.7-14.8-10.7-4.6-4-9-8.2-13.3-12.5-8.5-8.7-16.5-17.9-24.5-27.1-4-4.6-8-9.2-12.1-13.7-2-2.2-4.1-4.4-6.3-6.5-1.1-1.1-2.2-2.1-3.3-3.1-1.1-1-2.4-1.9-3.5-2.9-1.2-.9-2.3-1.9-3.6-2.7-.6-.4-1.2-.9-1.9-1.3l-1.9-1.2c-2.6-1.4-5.4-2.8-8.2-3.7-2.8-1-5.8-1.8-8.8-2.3-1.5-.3-3-.4-4.5-.6-1.5 0-3-.3-4.5-.3-12.1-.4-24.1 2.6-35.5 6.5-5.7 2-11.3 4.4-16.8 7-5.4 2.7-10.8 5.6-16 8.7-10.5 6.2-20.6 12.9-31 19.3-10.4 6.3-21 12.3-31.7 18.1-21.3 11.7-42.7 23.3-63.6 35.8-20.9 12.5-41.3 25.7-62.5 37.6-21.2 12-43.6 21.7-66.7 29.3-46.3 14.9-95.6 21-144 16.5Z"/><path d="m.1 551 9.2.8c1.5.1 3.1.3 4.6.4l4.6.2 4.6.2c1.5 0 3.1.2 4.6.1h13.8l4.6-.2c3.1-.1 6.2-.2 9.2-.5l9.2-.7c3.1-.3 6.1-.7 9.2-1l4.6-.5 4.6-.7 9.1-1.4 9.1-1.7c1.5-.3 3-.5 4.5-.9l4.5-1c12-2.6 23.9-6.1 35.6-10l8.7-3.1 2.2-.8 2.2-.8 4.3-1.7 4.3-1.7 2.1-.8 2.1-.9 8.5-3.7c1.4-.6 2.8-1.3 4.2-1.9l4.2-2c2.8-1.3 5.6-2.6 8.3-4.1l8.2-4.3c1.4-.7 2.7-1.5 4.1-2.2 1.3-.7 2.7-1.5 4-2.3 21.4-12.1 42-25.8 62.8-38.9 20.8-13.2 41.9-25.9 62.7-39.1 10.4-6.6 20.6-13.4 30.6-20.7 10-7.2 19.7-14.8 29.8-21.8 5.1-3.5 10.3-6.8 15.7-9.9 5.4-3.1 10.9-5.7 16.6-8.1 5.7-2.4 11.6-4.2 17.6-5.7 3-.7 6.1-1.2 9.1-1.6 3.1-.3 6.2-.5 9.3-.5 6.2.1 12.4 1.1 18.2 3.4 5.9 2.1 11.1 5.7 15.8 9.7 4.7 4.1 8.7 8.8 12.6 13.6 3.8 4.8 7.6 9.7 11.3 14.6 7.4 9.8 14.7 19.8 22.7 29.2 4 4.7 8.1 9.3 12.4 13.6 2.2 2.2 4.4 4.3 6.8 6.2 2.4 1.9 4.8 3.8 7.3 5.6 5 3.5 10.4 6.5 16 9.1 5.6 2.6 11.4 4.7 17.3 6.3 11.8 3.3 24.1 4.8 36.4 4.9 12.3.1 24.6-1 36.7-3.2 12.1-2.1 24.1-5.2 35.8-9 5.9-1.9 11.7-4 17.4-6.2 5.7-2.2 11.3-4.9 16.8-7.5 5.6-2.7 11.1-5.4 16.8-7.7 5.7-2.3 11.6-4.3 17.7-5.5 6.1-1.3 12.3-1.6 18.5-1.3 6.2.3 12.3 1.4 18.3 2.8 12 2.9 23.6 7.3 35.2 11.3 5.8 2 11.7 3.8 17.6 5.6 5.9 1.8 11.8 3.6 17.7 5.3 11.8 3.4 23.7 6.6 35.8 9.2 12 2.6 24.3 4.2 36.5 5.7 12.2 1.4 24.5 2.5 36.8 3.2 24.6 1.4 49.3 1.3 73.9-.2-24.6 1.5-49.3 1.7-73.9.4-12.3-.7-24.6-1.7-36.8-3.1-12.2-1.4-24.5-3-36.5-5.6-12.1-2.5-24-5.7-35.8-9.1-5.9-1.7-11.8-3.5-17.7-5.3-5.9-1.8-11.8-3.6-17.6-5.6-11.7-4-23.2-8.4-35.2-11.2-6-1.4-12.1-2.4-18.2-2.8-6.1-.3-12.3 0-18.3 1.3-6 1.2-11.9 3.2-17.5 5.5-5.7 2.3-11.2 5-16.8 7.7-5.6 2.7-11.1 5.3-16.9 7.6-5.7 2.3-11.5 4.4-17.4 6.2-11.7 3.8-23.7 6.9-35.9 9-12.1 2.2-24.5 3.3-36.8 3.2-12.3-.1-24.7-1.6-36.6-4.9-6-1.6-11.8-3.8-17.4-6.3-5.6-2.6-11-5.6-16.1-9.1-2.6-1.7-5-3.7-7.4-5.6-2.3-2-4.7-4.1-6.8-6.3-4.4-4.4-8.5-8.9-12.5-13.7-8-9.4-15.3-19.3-22.7-29.2-3.7-4.9-7.4-9.8-11.3-14.6-3.8-4.8-7.9-9.4-12.5-13.5-4.6-4-9.7-7.5-15.5-9.6-5.7-2.2-11.8-3.2-17.9-3.3-3.1 0-6.1.1-9.2.5-3 .4-6.1.9-9 1.6-5.9 1.5-11.8 3.3-17.5 5.6-5.7 2.3-11.2 5-16.6 8-5.3 3-10.6 6.3-15.6 9.8-10.1 7-19.9 14.6-29.8 21.8-10 7.2-20.3 14-30.7 20.6-20.8 13.2-41.9 25.9-62.7 39.1-20.9 13.1-41.4 26.7-62.9 38.8-1.3.8-2.7 1.5-4 2.3-1.3.7-2.7 1.5-4.1 2.2l-8.2 4.3c-2.7 1.5-5.5 2.7-8.3 4.1l-4.2 2c-1.4.7-2.8 1.3-4.2 1.9l-8.5 3.7-2.1.9-2.2.8-4.3 1.7-4.3 1.7-2.2.8-2.2.8-8.7 3c-11.7 3.8-23.6 7.3-35.6 9.9l-4.5 1-4.5.9-9.1 1.7-9.1 1.4-4.6.7-4.6.5c-3.1.3-6.1.7-9.2 1l-9.2.7c-3.1.3-6.2.3-9.2.4h-4.6c0 .1-2.3.2-2.3.2H28.1c-1.5 0-3.1-.2-4.6-.2l-4.6-.2-4.6-.2c-1.5 0-3.1-.3-4.6-.4l-9.2-.8Z"/><path d="m0 560.5 9.3 1c1.6.1 3.1.4 4.7.4l4.7.3 4.7.3h2.3c.8.2 1.6.2 2.3.2h9.4c1.6.2 3.1.1 4.7 0h4.7c0-.1 4.7-.3 4.7-.3 1.6 0 3.1-.2 4.7-.3l9.3-.7 9.3-1c1.6-.2 3.1-.3 4.7-.5l4.6-.7c3.1-.5 6.2-.9 9.3-1.5 6.1-1.2 12.3-2.3 18.3-3.8l4.6-1.1 2.3-.5 2.3-.6 9-2.5c1.5-.4 3-.9 4.5-1.3l4.5-1.4c3-.9 6-1.8 8.9-2.9l8.8-3.1c2.9-1.1 5.8-2.3 8.7-3.4l4.4-1.7c1.4-.6 2.9-1.2 4.3-1.9l8.6-3.8 8.4-4.1 4.2-2 4.1-2.2 8.3-4.4c2.7-1.5 5.5-3 8.2-4.6 21.7-12.5 42.4-26.4 63.2-40.2 20.8-13.9 41.6-27.8 61.7-42.5 10.1-7.4 20-15 29.5-23.1 9.5-8.1 18.8-16.5 28.7-24.2 4.9-3.9 10-7.5 15.3-10.9 5.2-3.4 10.8-6.4 16.5-9.1 5.7-2.7 11.6-4.7 17.7-6.4 6.1-1.6 12.3-2.6 18.6-2.5 3.1 0 6.3.3 9.4.9 3.1.6 6.1 1.5 9 2.7 5.8 2.4 11.1 6.2 15.5 10.6 4.5 4.4 8.3 9.4 12 14.5 3.6 5.1 7.1 10.3 10.5 15.6 6.9 10.5 13.6 21 20.9 31.1 3.7 5 7.5 10 11.6 14.7 4.1 4.7 8.5 9.1 13.4 13 4.9 3.9 10.1 7.3 15.6 10.3 5.5 2.9 11.2 5.4 17.1 7.5 11.8 4 24.2 6.2 36.6 6.9 12.4.7 25 0 37.3-1.9 12.3-1.8 24.5-4.8 36.4-8.6 5.9-1.9 11.8-4 17.6-6.4 5.8-2.4 11.4-5.1 16.9-8 5.5-2.9 11.1-5.8 16.8-8.4 5.7-2.6 11.6-4.9 17.7-6.4 3-.8 6.1-1.3 9.3-1.6 1.6-.2 3.1-.2 4.7-.3h4.7c6.3.2 12.5 1.1 18.6 2.5 12.2 2.8 23.9 7.3 35.7 11.4 5.9 2.1 11.8 3.9 17.8 5.7l18 5.4c12 3.5 24.1 6.6 36.3 9.1 12.2 2.5 24.6 4 37.1 5.4 12.4 1.3 24.9 2.2 37.4 2.8 25 1.1 50 .9 74.9-.5-24.9 1.5-50 1.8-74.9.8-12.5-.5-25-1.4-37.4-2.7-12.4-1.3-24.9-2.8-37.1-5.3-12.3-2.5-24.4-5.6-36.4-9.1-6-1.7-12-3.6-18-5.4-6-1.8-12-3.6-17.9-5.7-11.8-4.1-23.5-8.6-35.7-11.4-6.1-1.4-12.3-2.3-18.5-2.5h-4.7c-1.6.1-3.1.1-4.7.3-3.1.4-6.2.8-9.2 1.6-6 1.5-11.9 3.7-17.5 6.3-5.7 2.6-11.2 5.6-16.7 8.4-5.5 2.9-11.2 5.7-17 8-5.8 2.4-11.7 4.5-17.6 6.5-11.9 3.8-24.1 6.8-36.5 8.7-12.4 1.8-24.9 2.6-37.4 1.9-12.5-.7-25-2.9-36.8-6.9-5.9-2-11.7-4.5-17.2-7.5s-10.8-6.4-15.7-10.4c-4.9-3.9-9.4-8.3-13.5-13.1-4.1-4.7-8-9.7-11.7-14.7-7.4-10.1-14.1-20.7-21-31.1-3.4-5.2-6.9-10.4-10.5-15.5-3.6-5.1-7.4-10.1-11.8-14.4-4.4-4.4-9.5-8-15.2-10.4-2.9-1.2-5.8-2-8.9-2.7-3-.6-6.1-.8-9.2-.9-6.2 0-12.4.9-18.4 2.5-6 1.7-11.9 3.7-17.5 6.4-5.7 2.6-11.1 5.6-16.4 9-5.2 3.4-10.3 7-15.2 10.9-9.8 7.7-19.1 16.1-28.7 24.2-9.5 8.1-19.5 15.7-29.6 23.1-20.2 14.8-41 28.6-61.8 42.5-20.8 13.8-41.6 27.8-63.3 40.2-2.7 1.6-5.4 3.1-8.2 4.6l-8.3 4.4-4.2 2.2-4.2 2-8.5 4.1-8.6 3.8c-1.4.6-2.9 1.3-4.3 1.9l-4.4 1.7c-2.9 1.1-5.8 2.3-8.7 3.4l-8.8 3.1c-2.9 1.1-5.9 2-8.9 2.9l-4.5 1.4c-1.5.5-3 .9-4.5 1.3l-9.1 2.4-2.3.6-2.3.5-4.6 1.1c-6.1 1.5-12.2 2.6-18.4 3.7-3.1.6-6.2 1-9.3 1.4l-4.6.7c-1.5.2-3.1.4-4.7.5l-9.3 1-9.4.6c-1.6 0-3.1.2-4.7.3h-4.7c0 .1-4.7.2-4.7.2-1.6 0-3.1.1-4.7 0l-9.4-.2h-4.6c0-.1-4.7-.4-4.7-.4l-4.7-.3c-1.6 0-3.1-.3-4.7-.5l-9.3-1Z"/><path d="m0 569.9 9.4 1.1 2.4.3H13c0 .1 1.2.2 1.2.2l4.7.3 4.7.3 2.4.2h2.4l9.5.3h9.6c0-.1 4.8-.2 4.8-.2 1.6 0 3.2-.2 4.7-.3 3.2-.2 6.3-.4 9.5-.7l9.5-1c12.6-1.6 25.1-3.7 37.4-6.8l4.6-1.1c1.5-.4 3.1-.8 4.6-1.2l9.2-2.5 9.1-2.9 4.5-1.5 4.5-1.6c3-1.1 6-2.1 8.9-3.2l8.8-3.5c1.5-.6 3-1.1 4.4-1.8l4.3-1.9c2.9-1.3 5.8-2.5 8.7-3.9 5.7-2.8 11.4-5.5 17-8.5 2.8-1.5 5.6-2.9 8.4-4.5 2.8-1.5 5.5-3.1 8.3-4.7 21.9-12.8 42.9-27.1 63.6-41.8 20.7-14.7 41.1-29.8 60.6-46 4.9-4.1 9.7-8.2 14.4-12.4 2.4-2.1 4.7-4.3 7-6.4l6.9-6.6c9.1-8.8 17.9-18 27.5-26.4 2.4-2.1 4.8-4.1 7.3-6.2 2.5-1.9 5-4 7.6-5.8 2.6-1.9 5.3-3.6 7.9-5.3 1.4-.8 2.8-1.6 4.1-2.4l2.1-1.2 2.1-1.1 2.1-1.1c.7-.4 1.4-.7 2.2-1l4.4-1.9c.7-.3 1.5-.6 2.2-.9l2.2-.8c1.5-.5 3-1.1 4.5-1.5 1.5-.5 3.1-.8 4.6-1.2.8-.2 1.6-.3 2.3-.5.8-.2 1.6-.3 2.4-.4 3.1-.5 6.3-.7 9.5-.8 3.2 0 6.4.4 9.5.9 3.1.6 6.2 1.7 9.1 2.9 2.9 1.4 5.7 3 8.2 4.9.7.5 1.2 1 1.9 1.5.6.5 1.2 1 1.8 1.6 1.2 1.1 2.3 2.2 3.4 3.4 4.3 4.7 7.9 10 11.3 15.4 3.3 5.4 6.5 10.9 9.7 16.4 6.3 11 12.4 22.2 19.2 32.9 3.4 5.4 6.9 10.6 10.8 15.7 3.8 5.1 8 9.8 12.6 14.1 9.3 8.6 20.2 15.3 31.9 20.1 11.7 4.8 24.2 7.7 36.7 9 12.6 1.3 25.3 1.1 37.9-.4 12.6-1.5 25-4.3 37.1-8.1 6-1.9 12-4.1 17.8-6.6 5.8-2.5 11.5-5.3 17-8.4 5.5-3.1 11-6.3 16.7-9.2 5.7-2.9 11.5-5.5 17.6-7.3 1.5-.4 3.1-.9 4.6-1.2l2.3-.5c.8-.2 1.6-.2 2.4-.4l2.4-.3 2.4-.2 2.4-.2h2.4c6.4 0 12.7.8 18.9 2.2 12.4 2.7 24.3 7.4 36.3 11.6 6 2.1 12 4.1 18.1 5.8l18.2 5.4c12.2 3.5 24.5 6.7 36.9 9.1 6.2 1.2 12.5 2.2 18.8 3l9.4 1.1c3.2.3 6.3.7 9.5.9 12.6 1.2 25.3 1.9 38 2.4 25.4.9 50.7.5 76.1-.9-25.3 1.4-50.7 1.9-76.1 1.1-12.7-.4-25.4-1.2-38-2.3-3.2-.3-6.3-.6-9.5-.9l-9.5-1.1c-6.3-.8-12.6-1.8-18.8-3-12.5-2.4-24.8-5.6-37-9.1l-18.3-5.4c-6.1-1.8-12.1-3.7-18.1-5.8-12-4.2-23.8-8.8-36.2-11.5-6.2-1.3-12.5-2.2-18.8-2.1h-2.4l-2.4.2-2.4.2c-.8 0-1.6.2-2.3.3-.8.1-1.6.2-2.3.4l-2.3.5c-1.6.3-3.1.8-4.6 1.2-6.1 1.8-11.9 4.4-17.5 7.3-5.6 2.9-11.1 6.1-16.7 9.2-5.5 3.1-11.2 6-17.1 8.5-5.8 2.5-11.8 4.7-17.9 6.6-12.1 3.9-24.6 6.6-37.2 8.2-12.6 1.5-25.4 1.8-38.1.5-12.6-1.3-25.2-4.2-36.9-9-11.8-4.8-22.8-11.6-32.2-20.2-4.7-4.3-8.9-9.1-12.7-14.2-3.8-5.1-7.4-10.3-10.8-15.7-6.8-10.7-12.9-21.9-19.2-32.9-3.1-5.5-6.3-11-9.7-16.4-3.3-5.4-6.9-10.6-11.2-15.3-1.1-1.2-2.2-2.3-3.3-3.4-.6-.6-1.2-1-1.8-1.6l-1.8-1.5c-2.5-1.9-5.2-3.5-8.1-4.8-2.9-1.2-5.9-2.3-9-2.9-3.1-.6-6.2-1-9.4-.9-3.1 0-6.3.2-9.4.7-.8.1-1.6.2-2.3.4-.8.2-1.5.3-2.3.5-1.5.4-3.1.7-4.6 1.2-1.5.4-3 1-4.5 1.5l-2.2.8c-.7.3-1.5.5-2.2.9l-4.4 1.9c-.7.3-1.4.7-2.1 1l-2.1 1.1-2.1 1.1-2.1 1.2c-1.4.8-2.7 1.6-4.1 2.4-2.6 1.7-5.3 3.4-7.9 5.3-2.6 1.8-5.1 3.8-7.6 5.7-2.4 2-4.9 4-7.2 6.1-9.5 8.4-18.4 17.5-27.5 26.3l-6.9 6.6c-2.3 2.1-4.7 4.3-7 6.4-4.7 4.2-9.5 8.4-14.4 12.4-19.5 16.3-40 31.3-60.7 46-20.7 14.6-41.7 28.9-63.7 41.7-2.7 1.6-5.5 3.2-8.3 4.7-2.8 1.6-5.6 3-8.4 4.5-5.6 3.1-11.3 5.7-17 8.5-2.9 1.4-5.8 2.6-8.7 3.9l-4.4 1.9c-1.4.7-2.9 1.2-4.4 1.8l-8.8 3.5c-3 1.1-6 2.2-9 3.2l-4.5 1.6-4.5 1.4-9.1 2.9-9.2 2.5c-1.5.4-3.1.9-4.6 1.2l-4.6 1.1c-12.3 3-24.9 5.1-37.5 6.7l-9.5 1c-3.2.3-6.3.4-9.5.6-1.6 0-3.2.2-4.7.3h-4.8l-4.8.2c-1.6 0-3.2.1-4.8 0l-9.5-.3h-2.4l-2.4-.2-4.7-.4-4.7-.4h-1.2l-1.2-.2-2.4-.3-9.4-1.2Z"/><path d="M0 579.3c12.7 1.9 25.6 3.1 38.5 3.3 3.2 0 6.4 0 9.7-.1H53l4.8-.3 4.8-.3c1.6-.1 3.2-.2 4.8-.4l9.6-1 2.4-.3 2.4-.4 4.8-.7c3.2-.5 6.4-.9 9.5-1.6l9.5-1.9c3.1-.7 6.3-1.5 9.4-2.2 1.6-.4 3.1-.7 4.7-1.1l4.7-1.3c3.1-.9 6.2-1.7 9.3-2.7 6.1-2 12.3-3.9 18.3-6.2 24.3-8.7 47.5-20.2 69.7-33.2 22.2-13.2 43.3-27.9 63.9-43.4s40.5-31.9 59.3-49.6c4.7-4.4 9.3-8.9 13.8-13.6 4.5-4.6 8.9-9.3 13.2-14.1 8.6-9.6 17.1-19.3 26.3-28.4 4.6-4.5 9.4-8.9 14.5-12.9l1.9-1.5 2-1.4c1.3-.9 2.6-1.9 3.9-2.8 2.7-1.7 5.4-3.6 8.3-5.1 2.8-1.7 5.7-3 8.6-4.4 1.5-.7 3-1.2 4.5-1.8l2.3-.9 2.3-.8c.8-.3 1.5-.5 2.3-.7.8-.2 1.6-.5 2.3-.7 1.6-.4 3.1-.8 4.8-1 1.6-.3 3.2-.5 4.8-.7.8 0 1.6-.1 2.4-.2h2.4c6.5 0 13 1.3 18.9 4.2l2.2 1.1 2.1 1.3c.3.2.7.4 1 .7l1 .7c.6.5 1.3 1 1.9 1.5 1.2 1.1 2.5 2.1 3.6 3.3l3.3 3.6c4.1 5 7.5 10.6 10.6 16.2 3.1 5.7 6 11.4 8.9 17.2 5.7 11.6 11.2 23.2 17.4 34.5 3.1 5.6 6.4 11.2 9.9 16.6 3.5 5.4 7.4 10.5 11.8 15.2 8.8 9.4 19.4 16.9 31 22.5 11.6 5.6 24 9.3 36.7 11.2 25.4 3.9 51.7 1.3 76.3-6.3 6.1-1.9 12.2-4.1 18.1-6.7 1.5-.6 2.9-1.3 4.4-2 1.4-.7 2.9-1.4 4.3-2.1 2.9-1.5 5.7-3 8.4-4.7 5.6-3.2 11-6.7 16.6-9.9 5.6-3.2 11.4-6.1 17.5-8.3.8-.3 1.5-.5 2.3-.8l2.3-.7c1.6-.4 3.1-.8 4.7-1.1l2.4-.4c.8-.1 1.6-.3 2.4-.3l2.4-.2c.8 0 1.6-.2 2.4-.2 6.5-.3 12.9.4 19.3 1.7 12.7 2.6 24.8 7.3 36.9 11.7 6.1 2.2 12.2 4.2 18.4 6l18.5 5.5c12.4 3.5 24.9 6.7 37.6 9.1 12.6 2.5 25.5 3.7 38.3 4.8 12.8 1 25.7 1.7 38.6 2 25.8.7 51.6 0 77.3-1.2-25.7 1.3-51.5 2-77.3 1.4-12.9-.3-25.8-.9-38.6-1.9-12.8-1-25.7-2.2-38.4-4.7-12.7-2.4-25.2-5.6-37.6-9.1l-18.6-5.5c-6.2-1.8-12.3-3.8-18.4-6-12.1-4.4-24.2-9.1-36.8-11.6-6.3-1.3-12.7-2-19.1-1.7-.8 0-1.6 0-2.4.2l-2.4.2c-.8 0-1.6.2-2.4.3l-2.4.4c-1.6.3-3.1.7-4.7 1.1l-2.3.7c-.8.2-1.5.5-2.3.8-6.1 2.1-11.8 5-17.4 8.2-5.6 3.2-11 6.6-16.6 9.9-2.8 1.6-5.6 3.2-8.5 4.7-1.4.7-2.9 1.4-4.4 2.1-1.5.7-2.9 1.3-4.4 2-5.9 2.6-12 4.8-18.2 6.7-24.6 7.6-51 10.3-76.6 6.4-12.8-2-25.3-5.7-37-11.3-11.6-5.7-22.4-13.2-31.2-22.7-.6-.6-1.1-1.2-1.7-1.8l-1.6-1.8c-1.1-1.2-2-2.5-3.1-3.8-1-1.3-1.9-2.6-2.9-3.9l-2.7-4c-3.6-5.4-6.9-11-10-16.6-6.2-11.3-11.8-23-17.5-34.5-2.9-5.8-5.8-11.5-8.8-17.2-3.1-5.6-6.4-11.2-10.5-16.1-1-1.2-2.1-2.4-3.2-3.6-1.1-1.2-2.3-2.2-3.5-3.3-.6-.5-1.3-1-1.9-1.5l-1-.7c-.3-.2-.7-.4-1-.6l-2-1.3-2.1-1.1c-5.7-2.8-12.1-4.2-18.5-4.1h-2.4c-.8 0-1.6 0-2.4.2-1.6.2-3.2.3-4.8.7-1.6.2-3.1.6-4.7 1-.8.2-1.5.4-2.3.6-.8.2-1.5.4-2.3.7l-2.3.8-2.2.9-4.5 1.8c-2.9 1.4-5.8 2.7-8.6 4.4-2.8 1.5-5.5 3.3-8.2 5-1.3.9-2.6 1.9-3.9 2.8l-1.9 1.4-1.9 1.5c-5.1 3.9-9.8 8.3-14.4 12.8-9.2 9-17.7 18.8-26.3 28.3-4.3 4.8-8.7 9.5-13.2 14.1s-9.1 9.1-13.8 13.6c-18.8 17.7-38.8 34.1-59.4 49.6s-41.8 30.2-64 43.4c-22.2 13.1-45.5 24.5-69.8 33.2-6 2.3-12.2 4.1-18.3 6.1-3.1.9-6.2 1.8-9.3 2.6l-4.7 1.3c-1.6.4-3.1.7-4.7 1.1-3.1.7-6.3 1.5-9.4 2.2l-9.5 1.8c-3.2.7-6.4 1.1-9.5 1.6l-4.8.7-2.4.4-2.4.3-9.6 1c-1.6.2-3.2.2-4.8.3l-4.8.3-4.8.3h-4.8c-3.2 0-6.4.1-9.7 0-12.9-.2-25.8-1.4-38.5-3.4Z"/><path d="M0 588.7c12.9 2.2 26 3.5 39.1 3.8h14.7l4.9-.3 4.9-.3h2.5c.8-.2 1.6-.3 2.4-.4l9.8-1c26-3.3 51.6-9.9 76.1-19.1l4.6-1.7c1.5-.6 3-1.2 4.6-1.8l9.1-3.7 9-4.1c1.5-.7 3-1.3 4.5-2l4.4-2.2c2.9-1.5 5.9-2.9 8.8-4.4l8.7-4.6c5.8-3.1 11.4-6.4 17-9.8 22.4-13.6 43.8-28.9 64.2-45.3 20.4-16.4 39.8-34.1 57.8-53.3 9-9.5 17.5-19.5 25.6-29.8 4.1-5.1 8.2-10.3 12.3-15.3 4.2-5.1 8.4-10.1 12.9-14.9 8.9-9.6 18.7-18.6 30-25.4l2.1-1.3c.7-.4 1.4-.8 2.2-1.2l4.4-2.3 4.5-2c.8-.3 1.5-.7 2.3-1l2.3-.9c3.1-1.1 6.3-2.1 9.5-2.7 1.6-.4 3.3-.5 4.9-.8 1.6-.1 3.3-.3 4.9-.3 1.7 0 3.3.1 5 .2 1.6.2 3.3.4 4.9.8 1.6.3 3.2.9 4.8 1.4 1.5.7 3.1 1.2 4.5 2.1.7.4 1.5.7 2.2 1.2l2.1 1.4c.7.5 1.3 1 2 1.5.6.5 1.3 1 1.9 1.6 2.5 2.2 4.6 4.7 6.6 7.4 4 5.3 7.1 11.1 9.9 17.1 2.8 5.9 5.5 11.9 8.1 17.9 5.2 12 10.1 24.2 15.8 36 2.8 5.9 5.8 11.7 9.1 17.4 3.3 5.7 6.8 11.2 10.9 16.2 8.3 10.1 18.5 18.5 29.9 24.9 11.4 6.5 23.8 10.9 36.6 13.6 12.8 2.6 26 3.6 39 2.9 13.1-.6 26-2.9 38.6-6.6 6.3-1.9 12.4-4.1 18.4-6.7 6-2.6 11.8-5.6 17.4-9 5.6-3.4 11-7.1 16.6-10.5 5.6-3.5 11.3-6.8 17.4-9.2 6.1-2.5 12.5-4.2 19.1-4.7 6.6-.5 13.2 0 19.6 1.1 13 2.4 25.2 7.2 37.5 11.7 12.2 4.7 24.9 8 37.5 11.7 12.6 3.5 25.3 6.8 38.2 9.1 6.4 1.2 12.9 2.2 19.4 2.9 3.3.4 6.5.6 9.8.9l9.8.8c13.1.9 26.2 1.4 39.3 1.6 26.2.4 52.4-.4 78.6-1.6-26.2 1.3-52.4 2.2-78.6 1.8-13.1-.2-26.2-.6-39.3-1.5l-9.8-.7c-3.3-.3-6.5-.5-9.8-.9-6.5-.7-13-1.6-19.5-2.8-12.9-2.4-25.6-5.6-38.3-9.1-12.6-3.8-25.3-7-37.5-11.7-12.3-4.5-24.6-9.3-37.5-11.7-6.4-1.2-13-1.7-19.5-1.1-6.5.5-12.9 2.2-18.9 4.7-6.1 2.5-11.7 5.8-17.3 9.2-5.6 3.5-11 7.1-16.6 10.6-5.6 3.4-11.4 6.5-17.5 9.1-6 2.6-12.2 4.9-18.5 6.7-12.6 3.7-25.6 6-38.7 6.7-13.1.7-26.3-.3-39.2-2.9-12.8-2.7-25.4-7.1-36.8-13.6-11.5-6.4-21.8-14.9-30.2-25.1-4.2-5.1-7.8-10.6-11-16.3-3.3-5.7-6.3-11.5-9.1-17.5-5.6-11.9-10.6-24-15.8-36-2.6-6-5.3-12-8.1-17.9-2.8-5.9-5.9-11.7-9.8-16.9-1.9-2.6-4.1-5.1-6.5-7.3-.6-.6-1.2-1.1-1.8-1.6-.6-.5-1.2-1.1-1.9-1.5l-2-1.3c-.7-.5-1.4-.8-2.1-1.2-1.4-.8-2.9-1.4-4.4-2-1.5-.5-3.1-1.1-4.7-1.4-1.6-.4-3.2-.6-4.8-.8-1.6 0-3.2-.3-4.9-.2-1.6 0-3.2.1-4.9.3-1.6.2-3.2.4-4.8.8-3.2.6-6.3 1.5-9.4 2.6l-2.3.9c-.8.3-1.5.7-2.2 1l-4.5 2-4.3 2.3c-.7.4-1.5.7-2.1 1.2l-2.1 1.3c-11.2 6.8-20.9 15.7-29.8 25.3-4.4 4.8-8.7 9.8-12.9 14.9l-12.3 15.3c-8.2 10.3-16.7 20.3-25.7 29.8-18 19.1-37.4 36.8-57.9 53.3-20.4 16.4-41.8 31.7-64.3 45.3-5.6 3.4-11.3 6.7-17.1 9.8l-8.7 4.6c-2.9 1.5-5.9 2.9-8.8 4.4l-4.4 2.2c-1.5.7-3 1.4-4.5 2l-9 4-9.1 3.7c-1.5.6-3 1.3-4.6 1.8l-4.6 1.7c-24.6 9.2-50.2 15.7-76.2 18.9l-9.8 1c-.8 0-1.6.2-2.4.2h-2.5c0 .1-4.9.4-4.9.4l-4.9.3H39.4c-13.1-.4-26.2-1.7-39.1-3.9Z"/><path d="M0 598.1c13.1 2.5 26.4 3.9 39.7 4.3h10c3.3 0 6.7-.2 10-.3 3.3 0 6.6-.5 10-.7l5-.4c1.7-.1 3.3-.4 5-.6 13.2-1.6 26.3-4.3 39.2-7.6l4.8-1.3 2.4-.6c.8-.2 1.6-.5 2.4-.7l9.6-2.9c3.2-1 6.3-2.2 9.5-3.2 1.6-.6 3.2-1.1 4.7-1.7l4.7-1.8 4.7-1.8 2.3-.9 2.3-1 9.2-3.9c3-1.4 6.1-2.8 9.1-4.2l4.5-2.1 4.5-2.3 4.5-2.3c1.5-.7 3-1.5 4.4-2.3l8.8-4.8c2.9-1.6 5.8-3.3 8.7-5l4.3-2.5 4.2-2.6c11.4-6.9 22.4-14.5 33.1-22.4l8-6 7.9-6.2c2.6-2 5.2-4.2 7.7-6.3 2.6-2.1 5.2-4.2 7.6-6.5 20.2-17.5 39-36.5 56.1-56.9l6.3-7.7 6.1-7.9c4.1-5.3 7.9-10.7 11.8-16.1 7.7-10.9 15.5-21.7 24.1-32 2.2-2.5 4.3-5.1 6.7-7.5 1.2-1.2 2.3-2.5 3.5-3.6l3.6-3.5c.6-.6 1.2-1.2 1.8-1.7l1.9-1.7c1.3-1.1 2.5-2.2 3.8-3.2l4-3.1c1.4-1 2.8-1.9 4.1-2.8l2.1-1.4 2.2-1.3c1.5-.8 2.9-1.7 4.4-2.5 3-1.4 6-3 9.1-4.2 6.3-2.4 12.9-4 19.6-4.1 3.4 0 6.7.3 10 1.1s6.5 2 9.4 3.7l1.1.6c.4.2.7.5 1 .7l2.1 1.5c1.3 1.1 2.6 2.1 3.8 3.4l1.8 1.8c.5.6 1.1 1.3 1.6 1.9 1.1 1.3 2 2.7 3 4 3.8 5.6 6.6 11.7 9.2 17.8 2.6 6.2 5 12.4 7.3 18.6 4.7 12.5 9.1 25.1 14.1 37.4 2.5 6.2 5.2 12.3 8.2 18.2 3 6 6.2 11.8 10.1 17.2 3.8 5.4 8.2 10.4 13.1 15 4.8 4.6 10.1 8.7 15.6 12.3 11.2 7.2 23.5 12.5 36.4 15.9 25.7 6.8 53.3 6.3 78.9-.8 6.4-1.8 12.7-4 18.8-6.6 3.1-1.3 6.1-2.7 9-4.2 2.9-1.5 5.8-3.2 8.7-5 11.3-7 21.7-15.6 33.8-21.4.7-.4 1.5-.7 2.3-1l2.3-1c1.6-.6 3.1-1.2 4.7-1.7 3.2-.9 6.5-1.8 9.8-2.1 6.6-.9 13.4-.6 20 .4 13.3 2.1 25.8 7 38.3 11.7 12.4 4.8 25.3 8.4 38.1 12.1 12.8 3.6 25.8 6.8 38.9 9.2 6.6 1.2 13.2 2.1 19.8 2.8 6.6.6 13.3 1.1 19.9 1.5 13.3.8 26.6 1.1 40 1.2 26.7.2 53.3-.8 80-1.9-26.6 1.2-53.3 2.3-80 2.2-13.3 0-26.7-.4-40-1.1-6.7-.4-13.3-.8-20-1.5-6.6-.6-13.3-1.6-19.8-2.7-13.1-2.3-26.1-5.6-39-9.1-12.8-3.7-25.7-7.2-38.2-12-12.5-4.6-25-9.5-38.2-11.6-6.6-1-13.3-1.3-19.8-.4-6.6.8-13 2.9-18.9 5.8-12 5.8-22.4 14.3-33.7 21.4-2.8 1.8-5.7 3.4-8.7 5-3 1.5-6 3-9.1 4.3-6.1 2.6-12.4 4.9-18.9 6.7-25.7 7.2-53.4 7.7-79.3.9-12.9-3.4-25.4-8.7-36.6-16-5.6-3.6-10.9-7.8-15.8-12.4-4.9-4.6-9.3-9.6-13.2-15.1-3.9-5.4-7.2-11.3-10.2-17.3-3-6-5.7-12.1-8.3-18.3-5.1-12.4-9.5-25-14.2-37.4-2.3-6.2-4.7-12.5-7.3-18.6-2.6-6.1-5.4-12.2-9.1-17.7-.9-1.4-1.9-2.7-2.9-4-.5-.7-1.1-1.3-1.6-1.9-.6-.6-1.2-1.2-1.7-1.8-1.1-1.2-2.4-2.2-3.7-3.3-.7-.5-1.3-.9-2-1.4-.3-.2-.7-.5-1-.7l-1.1-.6c-2.8-1.7-5.9-2.9-9.1-3.7-3.2-.8-6.5-1.1-9.8-1.1-6.6 0-13.2 1.7-19.3 4-3.1 1.2-6 2.7-9 4.2-1.5.8-2.9 1.7-4.3 2.5l-2.2 1.3-2.1 1.4c-1.4.9-2.8 1.9-4.1 2.8l-3.9 3.1c-1.3 1-2.6 2.1-3.8 3.2l-1.9 1.6c-.6.5-1.3 1.1-1.8 1.7l-3.6 3.5c-1.2 1.1-2.3 2.4-3.5 3.6-2.3 2.4-4.5 4.9-6.7 7.4-8.6 10.2-16.3 21.1-24.1 31.9-3.9 5.4-7.8 10.8-11.8 16.1l-6.1 7.9-6.4 7.7c-17.1 20.5-36 39.5-56.2 57-2.5 2.2-5.1 4.3-7.6 6.5-2.6 2.1-5.1 4.3-7.8 6.3l-7.9 6.2-8 6c-10.8 7.9-21.8 15.4-33.2 22.4l-4.3 2.6-4.3 2.5c-2.9 1.7-5.7 3.4-8.7 5l-8.8 4.8c-1.5.8-2.9 1.6-4.4 2.3l-4.5 2.2-4.5 2.2-4.5 2.1c-3 1.4-6 2.8-9.1 4.2l-9.2 3.9-2.3 1-2.3.9-4.7 1.8-4.7 1.8c-1.6.6-3.1 1.1-4.7 1.7-3.2 1.1-6.3 2.2-9.5 3.2l-9.6 2.9c-.8.2-1.6.5-2.4.7l-2.4.6-4.8 1.3c-12.9 3.3-26 6-39.3 7.5-1.7.2-3.3.5-5 .6l-5 .4c-3.3.3-6.6.7-10 .7-3.3.1-6.7.3-10 .4h-10c-13.3-.5-26.6-2-39.7-4.5Z"/><path d="m0 595.2 9.7 1.4 2.4.4 2.4.3 4.9.4 4.9.4 2.4.2c.8 0 1.6 0 2.4.1l9.8.3h9.8c0-.1 4.9-.2 4.9-.2 1.6 0 3.3-.2 4.9-.3l9.8-.7 9.7-1.2c1.6-.2 3.2-.4 4.9-.6l4.8-.8c3.2-.6 6.4-1 9.6-1.7 6.4-1.4 12.8-2.6 19.1-4.3l4.7-1.2 2.4-.6c.8-.2 1.6-.5 2.3-.7l9.4-2.8 2.3-.7 2.3-.8 4.6-1.5c3.1-1.1 6.2-2 9.2-3.2l9.2-3.4c1.5-.5 3-1.2 4.5-1.8l4.5-1.8c6.1-2.4 12-5.1 18-7.8 11.8-5.5 23.5-11.3 34.9-17.6 22.8-12.6 44.7-27 65.3-42.9 10.3-8 20.3-16.4 29.9-25.2 9.6-8.8 18.9-18 27.8-27.6 4.4-4.8 8.8-9.7 13-14.6 4.2-5 8.3-10.1 12.3-15.2 8.1-10.2 16.1-20.6 24.9-30.3l3.3-3.6c1.1-1.2 2.2-2.4 3.4-3.5l3.5-3.4 3.6-3.3 1.8-1.6 1.9-1.6c1.3-1 2.5-2.1 3.8-3.1 2.6-1.9 5.2-4 8-5.7l2.1-1.3c.7-.5 1.4-.9 2.1-1.3l4.3-2.4c.4-.2.7-.4 1.1-.6l1.1-.5 2.2-1c1.5-.7 2.9-1.4 4.5-2 6.1-2.5 12.5-4.2 19.1-4.7 3.3-.2 6.6 0 9.9.4 3.3.6 6.4 1.5 9.5 2.8 3 1.4 5.8 3.1 8.4 5.2.7.5 1.2 1.1 1.9 1.6.6.6 1.2 1.1 1.8 1.7 1.2 1.2 2.2 2.4 3.3 3.7 4.2 5.1 7.5 10.8 10.5 16.6 3 5.8 5.7 11.8 8.4 17.7 5.3 11.9 10.3 24 16 35.7 2.9 5.9 5.9 11.6 9.2 17.2 3.3 5.6 7 11 11.3 15.9 2.1 2.5 4.4 4.8 6.7 7 2.4 2.2 4.8 4.3 7.4 6.3 5.1 4 10.6 7.5 16.4 10.5 5.8 3 11.8 5.6 17.9 7.7 6.2 2.1 12.5 3.7 18.9 5 12.8 2.5 25.9 3.3 38.9 2.6 13-.7 25.9-2.9 38.4-6.6 6.2-1.8 12.4-4.1 18.4-6.6 3-1.3 5.9-2.7 8.8-4.1 1.4-.7 2.9-1.5 4.3-2.3 1.4-.8 2.8-1.6 4.2-2.5 5.6-3.4 11-6.9 16.6-10.3 5.6-3.4 11.4-6.5 17.5-8.8 6.1-2.3 12.6-3.8 19.2-4 6.6-.3 13.1.6 19.5 2 12.8 2.9 24.8 8.1 37 12.8 6.1 2.4 12.2 4.6 18.4 6.6 6.2 2 12.4 4 18.7 5.9 12.5 3.8 25.1 7.2 37.9 9.7 6.4 1.3 12.8 2.3 19.3 3.1 3.2.4 6.5.7 9.7 1 3.2.3 6.5.6 9.7.8 13 1 26 1.6 39.1 1.8 26.1.5 52.2-.3 78.2-1.7-26.1 1.5-52.1 2.4-78.2 1.9-13-.2-26.1-.8-39.1-1.7-3.3-.2-6.5-.5-9.8-.8-3.2-.3-6.5-.6-9.7-1-6.5-.7-12.9-1.8-19.4-3-12.8-2.5-25.4-5.9-37.9-9.6-6.3-1.9-12.5-3.9-18.7-5.9-6.2-2-12.4-4.2-18.4-6.6-12.1-4.7-24.2-9.9-36.9-12.8-6.3-1.4-12.8-2.2-19.3-2-6.5.2-12.9 1.7-19 4s-11.8 5.4-17.4 8.8c-5.6 3.4-11 7-16.6 10.3-1.4.9-2.8 1.7-4.2 2.5-1.4.8-2.9 1.6-4.3 2.3-2.9 1.5-5.9 2.9-8.9 4.2-6 2.6-12.2 4.8-18.4 6.7-12.5 3.7-25.5 5.9-38.6 6.6-13.1.7-26.2 0-39-2.6-6.4-1.2-12.8-2.9-19-5-6.2-2.1-12.2-4.7-18-7.7-5.8-3-11.3-6.6-16.5-10.6-2.6-2-5.1-4.2-7.5-6.4-2.4-2.3-4.7-4.6-6.8-7.1-4.3-4.9-8.1-10.3-11.4-16-3.4-5.6-6.4-11.4-9.3-17.3-5.7-11.7-10.7-23.8-16-35.7-2.7-6-5.4-11.9-8.3-17.7-3-5.8-6.3-11.4-10.4-16.4-1-1.2-2.1-2.5-3.2-3.6-.5-.6-1.2-1.1-1.8-1.7-.6-.5-1.2-1.1-1.8-1.6-2.5-2-5.3-3.7-8.2-5.1-3-1.3-6.1-2.2-9.3-2.7-3.2-.5-6.4-.6-9.7-.4-6.5.5-12.8 2.1-18.8 4.6-1.5.6-3 1.3-4.4 2l-2.2 1-1.1.5c-.4.2-.7.4-1.1.6l-4.3 2.4c-.7.4-1.4.8-2.1 1.3l-2 1.3c-2.8 1.7-5.3 3.7-8 5.6-1.3 1-2.5 2.1-3.8 3.1l-1.9 1.6-1.8 1.6-3.6 3.3-3.5 3.4c-1.2 1.1-2.3 2.3-3.4 3.5-1.1 1.2-2.3 2.4-3.3 3.6-8.8 9.7-16.8 20-24.9 30.2-4.1 5.1-8.1 10.2-12.4 15.2-4.2 5-8.6 9.9-13 14.7-8.9 9.6-18.2 18.8-27.8 27.6-9.6 8.8-19.6 17.2-30 25.2-20.7 16-42.6 30.3-65.5 42.9-11.4 6.3-23.1 12.1-35 17.6-6 2.6-11.9 5.4-18 7.7l-4.5 1.8c-1.5.6-3 1.2-4.6 1.8l-9.2 3.4c-3 1.2-6.2 2.1-9.3 3.2l-4.6 1.5-2.3.8-2.3.7-9.4 2.7c-.8.2-1.6.5-2.4.7l-2.4.6-4.7 1.2c-6.3 1.7-12.7 2.9-19.1 4.2-3.2.6-6.4 1.1-9.7 1.6l-4.8.8c-1.6.2-3.2.4-4.9.6l-9.7 1.1-9.8.7c-1.6 0-3.3.3-4.9.3h-4.9l-4.9.2h-4.9l-9.8-.3c-.8 0-1.6 0-2.4-.1l-2.4-.2-4.9-.4-4.9-.4c-.8 0-1.6-.2-2.4-.3l-2.4-.4-9.7-1.4Z"/><path d="m0 592.2 9.5 1.2 4.8.6 4.8.3 4.8.3c1.6 0 3.2.3 4.8.2h9.6c12.8 0 25.5-.7 38.2-2.5l4.8-.6c1.6-.2 3.1-.5 4.7-.8l9.4-1.6 9.4-2 4.7-1 4.6-1.2 9.3-2.3 9.2-2.6 4.6-1.3 4.6-1.5 9.1-2.9c24.2-8.3 47.8-18.2 70.7-29.4 23-11.2 45.1-24 66.2-38.5 10.6-7.2 20.7-14.9 30.6-23 9.9-8.1 19.4-16.6 28.6-25.5 4.6-4.4 9.1-9 13.5-13.6s8.6-9.4 12.8-14.2c8.4-9.6 16.7-19.4 25.6-28.5 1.1-1.2 2.2-2.3 3.4-3.4 1.1-1.1 2.3-2.3 3.4-3.3 2.4-2.2 4.7-4.4 7.2-6.4 2.4-2.1 5-4 7.5-6 1.3-1 2.6-1.9 3.9-2.8 1.3-.9 2.6-1.9 4-2.7l4.1-2.5c1.4-.8 2.8-1.5 4.2-2.3l2.1-1.1c.7-.4 1.5-.7 2.2-1l4.4-2c3-1.2 6-2.4 9.1-3.2l1.2-.3 1.2-.3c.8-.2 1.6-.4 2.3-.5 1.6-.3 3.2-.6 4.8-.7 1.6-.2 3.2-.3 4.8-.4h3.6l1.2.1c3.2.2 6.4.9 9.5 1.9 3.1.9 6 2.4 8.7 4.1l2 1.3c.6.5 1.3 1 1.9 1.5 1.3 1 2.4 2.1 3.6 3.2 4.6 4.5 8.4 9.7 11.8 15.1 3.4 5.5 6.5 11.1 9.5 16.7 6 11.3 11.7 22.8 18.1 33.8 3.2 5.5 6.6 10.9 10.3 16.1 1.8 2.6 3.8 5.1 5.9 7.5 2.1 2.4 4.3 4.7 6.6 6.8 2.3 2.2 4.8 4.2 7.3 6.2 2.6 1.9 5.1 3.8 7.9 5.4 5.4 3.4 11.1 6.3 17 8.8 11.8 4.9 24.2 8.1 36.9 9.7 12.6 1.7 25.5 1.8 38.2.7 12.7-1.1 25.3-3.5 37.5-7.2 6.1-1.9 12.1-4 18-6.5s11.5-5.4 17.1-8.5c5.6-3.1 11.1-6.4 16.7-9.3 2.8-1.5 5.7-2.8 8.7-4.1 1.5-.6 3-1.2 4.5-1.7s3-1.1 4.6-1.4c6.2-1.7 12.6-2.5 19.1-2.1 3.2.2 6.4.5 9.5 1.2 1.6.2 3.1.7 4.7 1 1.6.4 3.1.8 4.6 1.2 12.3 3.5 24 8.9 35.8 13.8 3 1.2 5.9 2.4 8.9 3.5s6 2.2 9 3.2c6 2.1 12.1 4.2 18.1 6.1 12.1 3.9 24.4 7.5 36.9 10.2 6.2 1.3 12.5 2.5 18.9 3.3 6.3.8 12.7 1.5 19 2.1 12.7 1.2 25.5 2 38.2 2.4 25.5.8 51.1.2 76.6-1.5-25.5 1.7-51.1 2.5-76.6 1.7-12.8-.4-25.5-1.1-38.3-2.3-6.4-.6-12.7-1.3-19.1-2.1-6.3-.8-12.6-1.9-18.9-3.2-12.5-2.7-24.8-6.2-37-10.1-6.1-2-12.1-4-18.2-6.1-3-1.1-6-2.1-9-3.2s-6-2.3-8.9-3.5c-11.8-4.9-23.4-10.3-35.7-13.8-1.5-.4-3.1-.8-4.6-1.2-1.6-.3-3.1-.7-4.7-1-3.1-.6-6.3-1-9.5-1.1-6.4-.3-12.7.5-18.9 2.1-1.5.4-3 .9-4.6 1.4-1.5.5-3 1.1-4.5 1.7-2.9 1.3-5.8 2.6-8.6 4.1-5.7 2.9-11.2 6.2-16.7 9.4-5.6 3.2-11.3 6.1-17.2 8.6-5.9 2.5-11.9 4.7-18 6.5-12.2 3.7-24.9 6.2-37.6 7.3-12.7 1.1-25.6 1-38.3-.7-12.7-1.6-25.2-4.8-37.1-9.7-5.9-2.4-11.6-5.4-17.1-8.8-2.7-1.7-5.3-3.5-7.9-5.5-2.5-2-5-4-7.3-6.2-2.4-2.2-4.6-4.5-6.7-6.9-2.1-2.4-4.1-4.9-5.9-7.6-3.7-5.2-7.2-10.6-10.4-16.2-6.5-11.1-12.1-22.5-18.1-33.8-3-5.6-6.1-11.2-9.4-16.7-3.4-5.4-7.2-10.5-11.7-15-1.1-1.1-2.3-2.2-3.5-3.2-.6-.5-1.2-1-1.9-1.5l-2-1.3c-2.7-1.7-5.5-3.1-8.5-4-3-1-6.1-1.6-9.3-1.8h-1.2c0-.1-1.2-.1-1.2-.1h-2.4c-1.6 0-3.2.1-4.7.4-1.6.1-3.1.5-4.7.7l-2.3.5-1.2.3-1.1.3c-3.1.8-6 2-9 3.1l-4.3 2c-.7.3-1.5.6-2.2 1l-2.1 1.1c-1.4.8-2.8 1.5-4.2 2.3l-4.1 2.5c-1.4.8-2.7 1.7-4 2.7-1.3.9-2.6 1.8-3.9 2.8-2.5 2-5.1 3.9-7.5 6-2.5 2-4.8 4.2-7.1 6.4-1.2 1.1-2.3 2.2-3.4 3.3-1.1 1.1-2.3 2.2-3.4 3.4-8.9 9.1-17.2 18.9-25.6 28.5-4.2 4.8-8.5 9.6-12.9 14.2s-8.9 9.2-13.5 13.6c-9.2 8.9-18.8 17.4-28.7 25.5-9.9 8.1-20.1 15.8-30.7 23-21.1 14.5-43.3 27.3-66.3 38.5s-46.6 21.1-70.8 29.4l-9.1 2.9-4.6 1.4-4.6 1.3-9.2 2.6-9.3 2.3-4.7 1.1-4.7 1-9.4 1.9-9.5 1.6c-1.6.3-3.1.6-4.7.8l-4.8.6c-12.7 1.8-25.5 2.5-38.2 2.6l-9.6-.2c-1.6 0-3.2-.2-4.8-.3l-4.8-.3-4.8-.3c-1.6-.1-3.2-.4-4.8-.6l-9.5-1.2Z"/><path d="m0 589.3 9.3 1c1.6.1 3.1.4 4.7.5l4.7.2 4.7.2h2.3c0 .1 1.2.2 1.2.2h10.6c3.1 0 6.3-.2 9.4-.3l4.7-.2h2.3c.8-.2 1.6-.3 2.3-.3l9.3-.9 2.3-.2 2.3-.3 4.7-.6c24.8-3.4 49.2-9.6 73.1-17.1 11.9-3.8 23.8-7.9 35.5-12.4 5.9-2.2 11.7-4.5 17.5-6.9l8.7-3.6 8.7-3.6c23-9.9 45.5-21 66.9-34 21.5-12.9 41.8-27.7 60.8-44 9.5-8.2 18.6-16.8 27.3-25.8s17.3-18.1 26.4-26.8c9.1-8.7 18.8-16.7 29.5-23.4 2.7-1.6 5.4-3.3 8.2-4.6 1.4-.7 2.8-1.5 4.2-2.1l4.3-1.9c5.7-2.5 11.8-4.4 18-5.4 6.2-1 12.6-1 18.8.4 6.2 1.4 12 4.3 16.9 8.3 4.9 3.9 9.3 8.6 13.1 13.5 3.8 5 7.3 10.2 10.7 15.5 6.8 10.5 13.2 21.3 20.4 31.6 3.6 5.1 7.4 10.1 11.5 14.8 2.1 2.3 4.2 4.6 6.6 6.7 1.2 1 2.3 2.1 3.5 3.1l3.7 2.9c.6.5 1.2 1 1.9 1.4l2 1.3 3.9 2.6 4.1 2.3c1.4.8 2.7 1.6 4.1 2.2l4.2 2 1.1.5 1.1.4 2.2.9c1.5.6 2.9 1.2 4.4 1.7l4.4 1.5 2.2.7 2.3.6 4.5 1.2c1.5.4 3 .7 4.6 1 1.5.3 3 .7 4.6 1l4.6.8c1.5.2 3.1.5 4.6.7 3.1.3 6.2.8 9.3.9 24.9 1.8 50.2-1.2 74.1-8.5 6-1.8 11.9-3.9 17.7-6.3 5.8-2.4 11.4-5.2 16.9-8 5.6-2.9 11.1-5.8 16.9-8.3 5.8-2.5 11.7-4.6 17.9-5.7 3.1-.5 6.2-.9 9.4-1 3.1 0 6.3.1 9.4.5 6.2.9 12.3 2.5 18.3 4.5 11.9 4.1 23.1 9.6 34.6 14.6 5.7 2.5 11.6 4.7 17.5 6.9s11.7 4.4 17.7 6.4c11.8 4.1 23.8 7.8 36 10.7 12.2 2.9 24.6 4.6 37 6 12.4 1.4 24.9 2.4 37.4 2.9 25 1.1 50.1.6 75.1-1.3-25 2-50.1 2.6-75.1 1.5-12.5-.5-25-1.5-37.5-2.8-12.4-1.4-24.9-3-37.1-5.9-12.2-2.8-24.2-6.5-36.1-10.6-5.9-2.1-11.8-4.2-17.7-6.4-5.9-2.2-11.7-4.4-17.5-6.9-11.5-5-22.8-10.5-34.6-14.6-5.9-2-12-3.6-18.2-4.4-3.1-.4-6.2-.6-9.3-.5-3.1 0-6.2.4-9.3 1-6.1 1.1-12.1 3.2-17.8 5.7-5.7 2.5-11.3 5.4-16.8 8.3-5.6 2.9-11.2 5.7-17 8.1-5.8 2.4-11.7 4.5-17.7 6.3-24 7.3-49.3 10.4-74.4 8.6-3.1-.1-6.2-.6-9.4-.9-1.6-.1-3.1-.4-4.7-.7l-4.6-.8c-1.5-.3-3.1-.6-4.6-1-1.5-.4-3.1-.6-4.6-1l-4.5-1.2-2.3-.6-2.2-.7-4.5-1.5c-1.5-.5-2.9-1.1-4.4-1.7l-2.2-.9-1.1-.4-1.1-.5-4.3-2c-1.4-.6-2.8-1.4-4.2-2.2l-4.1-2.3-3.9-2.6-2-1.3c-.6-.4-1.3-1-1.9-1.4l-3.7-2.9c-1.2-1-2.3-2.1-3.5-3.1-2.4-2-4.5-4.4-6.6-6.7-4.2-4.7-8-9.7-11.6-14.9-7.2-10.3-13.6-21.1-20.4-31.6-3.4-5.2-6.9-10.5-10.7-15.4-3.8-4.9-8.1-9.5-13-13.4-4.8-3.9-10.5-6.8-16.5-8.1-6.1-1.4-12.4-1.3-18.5-.4-6.1 1-12.1 2.8-17.9 5.4l-4.3 1.9-4.2 2.1c-2.8 1.4-5.4 3.1-8.2 4.6-10.6 6.6-20.3 14.6-29.4 23.2-9.1 8.6-17.7 17.7-26.4 26.7s-17.9 17.6-27.4 25.8c-19 16.4-39.4 31.1-60.9 44-21.5 12.9-44 24.1-67.1 33.9l-8.7 3.6-8.7 3.6c-5.8 2.3-11.6 4.7-17.5 6.8-11.7 4.5-23.6 8.6-35.5 12.4-23.9 7.4-48.3 13.6-73.2 16.9l-4.7.6-2.3.3-2.3.2-9.4.9c-.8 0-1.6.2-2.3.2h-2.3c0 .1-4.7.3-4.7.3-3.1.1-6.3.4-9.4.3H25.3l-2.3-.2-4.7-.2-4.7-.2c-1.6-.1-3.1-.3-4.7-.5l-9.3-1Z"/><path d="M0 586.4c24.5 2.5 49.2 1.7 73.6-2 12.2-1.7 24.2-4.2 36.2-6.9 6-1.5 12-2.8 17.9-4.5 3-.8 5.9-1.6 8.9-2.4l8.8-2.6c3-.8 5.9-1.8 8.8-2.7l8.8-2.8c5.8-2 11.7-3.8 17.5-5.9 11.6-4 23.2-8.2 34.7-12.5 23-8.6 45.7-18.2 67.6-29.5 21.8-11.3 42.6-24.6 62.2-39.5 9.8-7.5 19.2-15.3 28.3-23.7 9.1-8.3 17.9-16.9 27.2-24.9 4.6-4.1 9.4-7.9 14.3-11.7 2.5-1.8 4.9-3.7 7.5-5.4 2.5-1.8 5.2-3.4 7.8-5 5.3-3.1 10.8-6.1 16.5-8.4 2.8-1.2 5.7-2.4 8.6-3.3 1.5-.5 3-.9 4.4-1.3 1.5-.3 3-.8 4.5-1 6.1-1.2 12.3-1.5 18.5-.7 3.1.4 6.1 1.2 9 2.2 2.9 1.1 5.7 2.5 8.3 4.2 5.2 3.4 10 7.3 14.3 11.7 2.2 2.2 4.2 4.5 6.2 6.9 2 2.4 3.9 4.7 5.8 7.2 7.6 9.7 14.8 19.7 22.8 29 1 1.2 2 2.3 3 3.5 1 1.2 2.1 2.3 3.1 3.4 2.1 2.2 4.3 4.4 6.6 6.4l1.7 1.5c.3.3.6.5.9.8l.9.7 3.6 2.8.9.7 1 .6 1.9 1.3 1.9 1.3 1 .6 1 .6c2.7 1.5 5.3 3.1 8.1 4.3 1.4.6 2.8 1.3 4.2 1.9l4.3 1.7c.7.3 1.4.6 2.1.8l2.2.7 4.4 1.5c1.5.4 3 .8 4.4 1.2 1.5.4 2.9.9 4.5 1.2 11.9 2.8 24.2 4.2 36.5 4.5h9.2c3.1 0 6.1-.2 9.2-.4 3.1-.3 6.1-.4 9.2-.8l9.1-1.1c6.1-.7 12.1-1.9 18.1-3.2 6-1.3 12-2.8 17.8-4.6 5.9-1.8 11.7-3.7 17.4-6 5.7-2.2 11.3-4.8 16.9-7.4 5.6-2.6 11.2-5.1 17-7.2 5.8-2 11.8-3.6 18-4.1 6.2-.6 12.4-.2 18.4 1.1 6 1.3 11.9 3.2 17.7 5.4 11.5 4.5 22.4 10.2 33.6 15.3 5.6 2.5 11.3 4.8 17 7.2 5.7 2.3 11.4 4.6 17.2 6.7 11.5 4.3 23.2 8.2 35.1 11.2 6 1.5 12 2.8 18 3.8l4.5.8 4.6.7c3 .5 6.1.9 9.1 1.3 12.2 1.6 24.4 2.8 36.7 3.5 24.6 1.4 49.2 1 73.7-1.1-24.5 2.2-49.2 2.7-73.7 1.4-12.3-.6-24.5-1.8-36.7-3.4-3-.4-6.1-.8-9.1-1.3l-4.6-.7-4.6-.8c-6.1-1-12.1-2.3-18.1-3.8-11.9-3-23.6-6.9-35.2-11.2-5.8-2.1-11.5-4.4-17.2-6.7-5.7-2.3-11.4-4.6-17-7.1-11.2-5.1-22.1-10.8-33.6-15.3-5.7-2.2-11.6-4.1-17.6-5.4-6-1.2-12.2-1.7-18.3-1.1-6.1.6-12.1 2.1-17.9 4.1-5.8 2.1-11.4 4.6-17 7.1-5.6 2.6-11.2 5.2-16.9 7.4-5.7 2.3-11.6 4.2-17.5 6-5.9 1.8-11.9 3.3-17.9 4.6-6 1.3-12.1 2.5-18.2 3.2l-9.2 1.1c-3.1.3-6.1.5-9.2.8-3.1.1-6.2.3-9.2.4h-9.2c-12.3-.3-24.6-1.7-36.6-4.5-1.5-.3-3-.8-4.5-1.2l-4.5-1.2-4.4-1.5-2.2-.7c-.7-.3-1.4-.6-2.2-.8l-4.3-1.7c-1.4-.6-2.8-1.3-4.2-1.9-2.8-1.2-5.5-2.8-8.2-4.3l-1-.6-1-.6-1.9-1.3-1.9-1.3-1-.6-.9-.7-3.7-2.8-.9-.7c-.3-.2-.6-.5-.9-.8l-1.7-1.6c-2.3-2-4.5-4.2-6.6-6.5-1.1-1.1-2.1-2.2-3.1-3.4-1-1.1-2-2.3-3.1-3.5-8-9.4-15.2-19.4-22.9-29-1.9-2.4-3.8-4.8-5.8-7.1s-4-4.7-6.1-6.9c-4.3-4.4-9-8.3-14.1-11.6-2.6-1.6-5.3-3-8.1-4.1-2.9-1-5.8-1.8-8.9-2.2-6-.8-12.2-.5-18.2.7-1.5.3-3 .7-4.5 1-1.5.4-3 .8-4.4 1.3-2.9.9-5.8 2-8.6 3.3-5.7 2.3-11.1 5.3-16.4 8.3-2.6 1.6-5.2 3.2-7.8 5-2.6 1.7-5 3.5-7.5 5.3-4.9 3.7-9.7 7.6-14.3 11.6-9.3 8-18.1 16.6-27.2 24.9-9.1 8.3-18.6 16.2-28.3 23.7-19.6 14.9-40.4 28.2-62.3 39.5s-44.6 20.9-67.7 29.4c-11.5 4.2-23.1 8.5-34.7 12.5-5.8 2-11.7 3.9-17.5 5.9l-8.8 2.8c-2.9.9-5.9 1.8-8.8 2.7l-8.9 2.6c-3 .8-5.9 1.6-8.9 2.4-5.9 1.7-11.9 3-17.9 4.5-12 2.7-24.1 5.1-36.3 6.8-24.3 3.6-49.1 4.4-73.6 1.8Z"/><path d="m.1 583.4 9.1.6c1.5 0 3 .2 4.5.3h4.5c3 0 6 .1 9.1.1l9.1-.3c1.5 0 3 0 4.5-.2l4.5-.4c3-.3 6-.5 9-.8l9-1.1c1.5-.2 3-.3 4.5-.6l4.5-.7c3-.5 6-.9 9-1.4l8.9-1.7c1.5-.3 3-.5 4.5-.8l4.4-1 8.9-1.9c11.8-2.8 23.5-5.7 35.1-9.1 23.3-6.5 46.3-14 69.4-21.4 23.1-7.3 45.9-15.3 68.1-25 22.2-9.7 43.4-21.4 63.5-34.9 10-6.8 19.8-13.9 29.2-21.5 9.4-7.6 18.5-15.6 28-23.1 4.7-3.8 9.6-7.4 14.5-10.9l3.8-2.6 1.9-1.3 1.9-1.2 3.8-2.4 3.9-2.3c.7-.4 1.3-.8 2-1.1l2-1.1 4-2.1 4.1-1.9c.7-.3 1.4-.7 2.1-1l2.1-.9c5.5-2.5 11.3-4.4 17.3-5.7 5.9-1.3 12.1-1.9 18.1-1.5h1.1l1.1.2c.8 0 1.5.2 2.3.3 1.5.3 3 .5 4.5 1 1.5.3 2.9.9 4.4 1.4 1.4.6 2.8 1.1 4.2 1.9 5.4 2.8 10.5 6.1 15.3 9.9 2.4 1.9 4.7 3.9 6.9 6s4.4 4.2 6.5 6.4c8.5 8.6 16.6 17.7 25.4 25.9 4.4 4.1 9 8.1 13.9 11.6 5 3.4 10.2 6.5 15.7 8.9 11 5 22.8 8.1 34.7 10 11.9 1.9 24 2.7 36.1 2.4 24.2-.5 48.2-4.3 71.5-11 5.8-1.7 11.6-3.5 17.2-5.6 5.7-2.1 11.2-4.4 16.9-6.7 5.6-2.2 11.3-4.4 17.2-6 2.9-.8 5.9-1.4 8.9-1.9 1.5-.2 3-.4 4.5-.5h2.3c0-.1 1.1-.2 1.1-.2h1.1c6.1-.1 12.2.8 18 2.4 5.8 1.6 11.5 3.8 17.1 6.2 11.1 4.9 21.7 10.7 32.6 15.9 5.5 2.6 11 5 16.6 7.4 5.5 2.4 11.1 4.8 16.7 7 11.2 4.5 22.6 8.5 34.3 11.8 5.8 1.6 11.7 3 17.7 4.1 5.9 1.2 11.9 2.2 17.9 3.1 12 1.8 24 3.2 36.1 4 24.1 1.6 48.4 1.4 72.5-1-24.1 2.5-48.4 2.8-72.5 1.2-12.1-.8-24.1-2.1-36.1-3.9-6-.9-12-1.9-17.9-3.1-6-1.1-11.9-2.5-17.7-4.1-11.7-3.2-23.1-7.3-34.4-11.7-5.6-2.2-11.2-4.6-16.8-7-5.5-2.4-11.1-4.8-16.6-7.4-10.9-5.2-21.5-11.1-32.6-15.9-5.5-2.4-11.2-4.5-17-6.1-5.8-1.6-11.8-2.5-17.8-2.4h-4.5c-1.5.3-3 .5-4.5.7-3 .5-5.9 1.1-8.8 1.9-5.8 1.6-11.5 3.7-17.1 6-5.6 2.3-11.2 4.6-16.9 6.7-5.7 2.1-11.5 3.9-17.3 5.6-23.3 6.7-47.4 10.6-71.6 11.1-12.1.3-24.3-.5-36.2-2.4-12-1.9-23.8-5-34.9-10.1-5.6-2.4-10.8-5.5-15.9-8.9-5-3.5-9.6-7.5-14-11.6-8.9-8.3-16.9-17.3-25.4-25.9-2.1-2.1-4.3-4.3-6.5-6.3-2.2-2.1-4.4-4.1-6.8-6-4.7-3.7-9.8-7-15.2-9.8-1.3-.7-2.7-1.2-4.1-1.8-1.4-.5-2.8-1-4.3-1.3-1.4-.4-2.9-.7-4.4-.9-.7-.1-1.5-.2-2.2-.3h-1.1c0-.1-1.1-.2-1.1-.2-6-.4-12 .2-17.9 1.4-5.9 1.3-11.6 3.2-17.1 5.7l-2.1.9c-.7.3-1.4.6-2.1 1l-4.1 1.9-4 2.1-2 1.1c-.7.4-1.3.8-2 1.1l-3.9 2.3-3.8 2.4-1.9 1.2-1.9 1.3-3.8 2.5c-4.9 3.5-9.8 7.1-14.5 10.9-9.5 7.5-18.6 15.4-28.1 23-9.4 7.7-19.2 14.8-29.3 21.5-20.1 13.5-41.4 25.2-63.6 34.9-22.2 9.7-45.1 17.7-68.2 25-23.1 7.3-46.1 14.8-69.4 21.3-11.6 3.3-23.4 6.2-35.2 9l-8.9 1.9-4.4.9c-1.5.3-3 .6-4.5.8l-8.9 1.6c-3 .5-6 .9-9 1.4l-4.5.7-4.5.6-9 1.1c-3 .3-6 .5-9 .7l-4.5.3c-1.5.1-3 .1-4.5.2l-9.1.3c-3 0-6 0-9.1-.1h-4.5c-1.5-.1-3-.3-4.5-.4l-9.1-.6Z"/><path d="m.1 580.5 8.9.4 4.5.2H18l8.9-.1 8.9-.5 4.5-.3 4.5-.4 8.9-.9 8.9-1.2 4.4-.6 4.4-.7 8.8-1.4 8.8-1.7 4.4-.8c1.5-.3 2.9-.6 4.4-.9l8.7-1.9c11.6-2.7 23.2-5.5 34.7-8.7 23.1-6.1 45.9-12.9 69-19 23-6.1 46.1-12.5 68.5-20.6 11.2-4 22.3-8.6 33.1-13.6s21.4-10.6 31.7-16.6c5.2-3 10.2-6.1 15.3-9.3 2.5-1.6 5-3.2 7.5-4.9 2.5-1.7 4.9-3.4 7.3-5.1 9.7-6.9 19.2-14.2 28.9-21.2 9.7-6.9 19.6-13.6 30.2-19.3 2.6-1.5 5.3-2.7 8-4.1 1.3-.7 2.7-1.2 4.1-1.9 1.4-.6 2.7-1.3 4.1-1.8 2.8-1.1 5.5-2.3 8.4-3.2 2.8-.9 5.7-1.8 8.6-2.5 1.4-.4 2.9-.6 4.4-.9 1.5-.2 3-.5 4.4-.7 3-.4 6-.5 9-.5s6 .3 9 .8 5.9 1.3 8.7 2.3c2.8 1.1 5.5 2.4 8.2 3.7 2.7 1.3 5.3 2.7 7.9 4.3 2.6 1.5 5.1 3.2 7.5 5 2.4 1.8 4.8 3.6 7.1 5.4 9.4 7.4 18.3 15.3 27.9 22.3 2.4 1.7 4.8 3.5 7.3 5.1.6.4 1.2.8 1.9 1.2l1.9 1.1c1.3.7 2.5 1.6 3.9 2.2l4 2 1 .5 1 .4 2.1.9c2.7 1.2 5.5 2.1 8.3 3.1 11.3 3.7 23.1 5.8 34.9 7 11.9 1.1 23.8 1.2 35.7.6 23.8-1.3 47.4-5.4 70.4-11.5 5.8-1.5 11.5-3.2 17.1-5.1 5.7-1.9 11.2-4 16.9-5.9 5.7-1.9 11.4-3.6 17.3-4.8 5.9-1.1 11.9-1.7 17.9-1.3 6 .3 11.9 1.6 17.6 3.6 5.7 1.9 11.2 4.3 16.6 6.8 10.8 5.2 21.1 11.2 31.7 16.5 21.4 10.4 43.2 20.5 66 27.4l4.3 1.3 4.3 1.2c2.9.7 5.8 1.4 8.7 2 5.8 1.3 11.7 2.4 17.5 3.5 11.7 2 23.6 3.5 35.5 4.5 23.8 1.9 47.7 1.8 71.4-.9-23.7 2.8-47.7 2.9-71.5 1.1-11.9-.9-23.8-2.4-35.5-4.4-5.9-1-11.7-2.1-17.6-3.4-2.9-.7-5.8-1.3-8.7-2l-4.3-1.2-4.3-1.2c-11.4-3.4-22.6-7.7-33.6-12.3-11-4.7-21.8-9.7-32.5-15-10.7-5.4-21-11.4-31.8-16.5-5.4-2.6-10.9-4.9-16.5-6.8-5.6-1.9-11.5-3.2-17.4-3.5-5.9-.3-11.9.2-17.7 1.3-5.8 1.2-11.5 2.9-17.2 4.8-5.6 1.9-11.2 4-16.9 5.9-5.7 1.9-11.4 3.6-17.2 5.1-23.1 6.2-46.7 10.3-70.6 11.6-11.9.6-23.9.6-35.8-.5-11.9-1.2-23.7-3.3-35.1-7-2.8-1-5.7-1.9-8.4-3.2l-2.1-.9-1-.4-1-.5-4-2c-1.3-.7-2.6-1.5-3.9-2.2l-1.9-1.1c-.6-.4-1.3-.8-1.9-1.2-2.5-1.6-4.9-3.4-7.4-5.1-9.7-7.1-18.6-15-28-22.3-2.3-1.8-4.7-3.7-7.1-5.4-2.4-1.8-4.9-3.4-7.4-4.9-2.5-1.5-5.2-2.9-7.8-4.2-2.7-1.3-5.4-2.6-8.1-3.7-2.8-1-5.6-1.8-8.5-2.3-2.9-.5-5.9-.8-8.8-.8-3 0-5.9.1-8.9.5-1.5.1-2.9.4-4.4.7-1.5.3-2.9.5-4.4.9-2.9.6-5.7 1.5-8.6 2.5-2.8 1-5.6 2.1-8.3 3.2-1.4.5-2.7 1.2-4.1 1.8-1.4.6-2.7 1.2-4.1 1.9-2.7 1.3-5.4 2.6-7.9 4.1-10.5 5.6-20.4 12.3-30.1 19.2-9.7 6.9-19.2 14.2-28.9 21.1-2.4 1.7-4.9 3.4-7.4 5.1-2.5 1.7-5 3.3-7.5 4.9-5 3.2-10.1 6.3-15.3 9.3-10.3 6-20.9 11.5-31.7 16.6-10.8 5-21.9 9.6-33.1 13.6-22.5 8.1-45.5 14.4-68.6 20.5-23 6.1-45.9 12.9-69 19-11.5 3.1-23.1 5.9-34.8 8.6l-8.8 1.9c-1.5.3-2.9.6-4.4.9l-4.4.8-8.8 1.7-8.8 1.4-4.4.7-4.4.6-8.9 1.1-8.9.8-4.5.4-4.5.2-8.9.5H13.5l-4.5-.2-8.9-.4Z"/><path d="m.2 577.5 8.8.2h8.8l8.8-.2 8.8-.6 4.4-.3 4.4-.5 8.8-1 8.8-1.3 4.4-.6c1.5-.2 2.9-.5 4.4-.7 23.3-3.9 46.2-9.4 69.1-15.2 22.9-5.8 45.7-11.8 68.7-16.9 23-5 46.2-9.7 68.8-16.2 11.3-3.2 22.5-6.9 33.5-11.2 11-4.3 21.8-9.1 32.3-14.3 10.5-5.3 20.9-10.9 30.9-17.1 10-6.2 19.8-12.8 29.7-19.2 9.9-6.4 20-12.6 30.6-17.9 5.2-2.7 10.6-5.1 16.1-7.4 2.8-1 5.5-2.2 8.3-3.1 2.8-.9 5.6-1.8 8.5-2.5 5.7-1.4 11.6-2.4 17.5-2.6 5.9-.2 11.9.3 17.6 1.9 2.9.8 5.6 1.8 8.4 2.8 2.8 1 5.5 2.1 8.3 3.2 5.5 2.3 10.6 5.3 15.7 8.2 10.2 6 20 12.5 30.3 18.2 2.6 1.4 5.2 2.8 7.8 4.1 1.3.7 2.7 1.2 4 1.8l2 .9c.7.3 1.4.5 2.1.8l4.1 1.5 4.2 1.3c1.4.5 2.8.8 4.2 1.2 1.4.4 2.8.7 4.3 1.1 11.5 2.5 23.2 3.8 35 4.2 11.8.4 23.6 0 35.3-1 23.5-2 46.7-6.2 69.6-11.8 5.7-1.4 11.4-2.9 17.1-4.6 5.7-1.7 11.3-3.4 17-5 5.7-1.6 11.5-2.9 17.3-3.7 5.9-.8 11.8-.9 17.7-.2 5.9.7 11.6 2.4 17.1 4.5 5.5 2.1 10.9 4.7 16.1 7.4 10.5 5.4 20.6 11.6 30.9 17.1 20.9 10.9 42.1 21.3 64.5 28.7 2.8.9 5.6 1.8 8.4 2.6 2.8.8 5.7 1.5 8.5 2.2 2.9.7 5.7 1.3 8.6 2l8.7 1.8c11.6 2.2 23.2 3.9 35 5 23.5 2.2 47.2 2.2 70.6-.7-23.4 3-47.1 3.1-70.6.9-11.7-1.1-23.4-2.7-35-4.9l-8.7-1.8c-2.9-.7-5.8-1.3-8.6-2-2.9-.7-5.7-1.4-8.6-2.2-2.8-.8-5.7-1.7-8.5-2.6-22.5-7.3-43.7-17.8-64.6-28.6-10.4-5.5-20.5-11.7-31-17.1-5.2-2.7-10.6-5.2-16-7.3-5.5-2.1-11.2-3.8-17-4.5-5.8-.7-11.7-.5-17.6.2-5.8.7-11.6 2.1-17.2 3.7-5.7 1.6-11.3 3.4-16.9 5-5.7 1.7-11.4 3.2-17.1 4.6-22.9 5.6-46.2 9.9-69.7 11.9-11.8 1-23.6 1.4-35.4 1.1-11.8-.4-23.6-1.7-35.1-4.2-1.4-.3-2.9-.7-4.3-1.1-1.4-.4-2.9-.7-4.3-1.2l-4.2-1.3-4.2-1.5c-.7-.3-1.4-.5-2.1-.8l-2-.9c-1.3-.6-2.7-1.2-4-1.8-2.7-1.3-5.3-2.7-7.9-4.1-10.4-5.7-20.2-12.2-30.4-18.1-5.1-3-10.2-5.9-15.6-8.2-2.7-1.2-5.4-2.2-8.2-3.2-2.8-1-5.5-2-8.3-2.8-5.6-1.5-11.5-2-17.4-1.9-5.9.2-11.7 1.1-17.4 2.5-2.9.7-5.7 1.5-8.4 2.5-2.8.9-5.5 2.1-8.3 3.1-5.4 2.2-10.8 4.6-16.1 7.3-10.5 5.3-20.6 11.5-30.5 17.8-9.9 6.4-19.7 13-29.7 19.2-10 6.2-20.4 11.9-31 17.1-10.6 5.2-21.4 10-32.4 14.3-11 4.3-22.2 7.9-33.6 11.2-22.7 6.5-45.8 11.2-68.9 16.1-23 5-45.8 11-68.7 16.8-22.9 5.7-45.9 11.1-69.1 15-1.5.2-2.9.5-4.4.7l-4.4.6-8.8 1.2-8.8.9-4.4.5-4.4.3-8.8.6-8.8.2h-4.4c0 .1-4.4 0-4.4 0l-8.8-.2Z"/><path d="M.2 574.6h13.2l4.4-.2 8.8-.4 8.7-.8 4.4-.4 4.3-.5 8.7-1.1 8.7-1.3c2.9-.4 5.8-.9 8.6-1.4 23-4.1 45.8-9.5 68.5-14.9 11.4-2.7 22.7-5.4 34.1-8l8.6-1.8 4.3-.9 4.3-.8 8.6-1.7 8.6-1.5c23.1-3.8 46.2-7 69.1-11.8 11.4-2.4 22.7-5.3 33.9-8.8 11.1-3.5 22.1-7.5 32.9-12 10.8-4.5 21.4-9.4 31.7-14.9s20.3-11.5 30.5-17.3c10.2-5.8 20.4-11.5 31-16.4 5.3-2.5 10.7-4.8 16.1-7 5.5-2.1 11-4.1 16.7-5.5 2.8-.8 5.7-1.3 8.6-1.8 2.9-.5 5.8-.9 8.7-1.1 2.9-.2 5.9-.3 8.8-.1 2.9.1 5.9.4 8.8.9 2.9.5 5.7 1.3 8.6 2 2.8.7 5.7 1.4 8.5 2.2 2.8.8 5.6 1.7 8.4 2.7 2.7 1 5.5 2.1 8.2 3.2 10.8 4.4 21.4 9.3 32.3 13.5 2.7 1 5.5 2 8.2 2.9 1.4.5 2.8.9 4.2 1.3l2.1.6 2.1.5c5.6 1.5 11.4 2.4 17.2 3.2 11.6 1.4 23.3 1.9 34.9 1.6 11.7-.3 23.3-1.1 34.9-2.4 23.2-2.6 46.2-6.9 69-11.9 5.7-1.3 11.4-2.5 17.1-4 5.7-1.4 11.3-2.9 17-4.1 5.7-1.3 11.5-2.2 17.4-2.6 5.8-.4 11.8-.2 17.5.8 5.8 1 11.4 2.9 16.7 5.3 5.4 2.3 10.6 5 15.7 7.8 10.2 5.7 20.1 12 30.2 17.8 20.4 11.3 41.2 22.3 63.2 30.1 2.7 1 5.5 1.9 8.3 2.8 2.8.9 5.6 1.6 8.4 2.4 2.8.8 5.7 1.5 8.5 2.2l8.5 2c11.4 2.5 23 4.3 34.6 5.6 23.2 2.5 46.7 2.7 69.9-.5-23.1 3.3-46.7 3.2-69.9.8-11.6-1.2-23.2-3.1-34.6-5.5l-8.5-1.9c-2.8-.7-5.7-1.4-8.5-2.2-2.8-.8-5.6-1.5-8.4-2.4-2.8-.9-5.6-1.8-8.3-2.8-22.1-7.8-42.9-18.7-63.3-30.1-10.2-5.8-20-12.1-30.2-17.7-5.1-2.8-10.3-5.5-15.7-7.8-5.3-2.3-10.9-4.2-16.6-5.2-5.7-1-11.6-1.2-17.4-.8-5.8.4-11.6 1.4-17.3 2.6-5.7 1.2-11.3 2.7-17 4.2-5.7 1.4-11.4 2.7-17.1 4-22.8 5-45.8 9.3-69.1 12-11.6 1.3-23.3 2.2-35 2.5-11.7.3-23.4-.2-35-1.6-5.8-.8-11.6-1.7-17.3-3.2l-2.1-.5-2.1-.6c-1.4-.4-2.8-.8-4.2-1.3-2.8-.9-5.5-1.9-8.3-3-11-4.1-21.6-9-32.4-13.4-2.7-1.1-5.4-2.2-8.1-3.2-2.7-1-5.5-1.9-8.3-2.7-2.8-.8-5.6-1.5-8.5-2.2-2.8-.7-5.7-1.5-8.5-2-2.9-.5-5.7-.8-8.6-.9-2.9-.1-5.8 0-8.7.1-2.9.2-5.8.6-8.7 1-2.9.5-5.7 1.1-8.5 1.8-5.7 1.4-11.1 3.4-16.6 5.5-5.4 2.2-10.8 4.4-16.1 6.9-10.6 4.9-20.8 10.6-30.9 16.4-10.1 5.8-20.2 11.8-30.5 17.3s-20.9 10.4-31.7 14.9-21.8 8.5-33 12-22.5 6.3-34 8.8c-22.9 4.9-46.1 8-69.1 11.8l-8.6 1.5-8.6 1.7-4.3.8-4.3.9-8.6 1.8c-11.4 2.5-22.8 5.2-34.1 7.9-22.7 5.4-45.5 10.7-68.5 14.7-2.9.5-5.8 1-8.6 1.4l-8.7 1.3-8.7 1.1-4.4.5-4.4.4-8.7.7-8.8.4-4.4.2H.4Z"/><path d="m.2 571.6 8.7-.2h4.4l4.3-.4 8.7-.6 8.7-.9 4.3-.5 4.3-.6 8.6-1.2c2.9-.4 5.7-1 8.6-1.4 2.9-.5 5.7-.9 8.6-1.5 22.8-4.2 45.4-9.7 68.1-14.8 11.3-2.6 22.7-5 34.1-7.2l8.6-1.6 4.3-.8 4.3-.7 8.6-1.3 8.7-1.1c23.1-2.6 46.3-4.2 69.3-7.5 11.5-1.6 22.9-3.7 34.2-6.4 11.3-2.7 22.4-6 33.4-9.7 11-3.8 21.8-8 32.4-12.8 10.6-4.8 20.9-10.1 31.3-15.3 10.4-5.2 20.8-10.4 31.5-15 5.3-2.3 10.7-4.5 16.2-6.5s11-3.9 16.6-5.3c2.8-.8 5.7-1.3 8.5-1.9 2.9-.5 5.7-1 8.7-1.2 5.8-.6 11.7-.7 17.5-.1 2.9.3 5.8.8 8.6 1.2l8.6 1.3c2.9.4 5.7.9 8.6 1.6 2.8.6 5.7 1.3 8.5 2 11.3 2.8 22.5 5.9 33.8 8.5 2.8.6 5.7 1.2 8.5 1.8 1.4.3 2.9.5 4.3.7 1.4.2 2.9.5 4.3.6 5.7.8 11.5 1.2 17.3 1.5 23.2.8 46.4-1.4 69.4-4.6 11.5-1.6 22.9-3.5 34.4-5.6l34.2-6.5 8.6-1.6c2.8-.6 5.7-1.1 8.5-1.7 5.7-1.2 11.4-2.4 17.1-3.3 11.4-1.9 23.3-2.6 34.7 0 5.7 1.2 11.2 3.3 16.4 5.9 5.3 2.5 10.3 5.3 15.4 8.3 10 5.9 19.7 12.4 29.6 18.4 19.9 11.9 40.3 23.3 61.9 31.7 2.7 1.1 5.4 2 8.2 3 2.7 1 5.5 1.8 8.3 2.6 2.8.9 5.6 1.6 8.4 2.4 2.8.7 5.6 1.4 8.4 2.2 11.3 2.7 22.7 4.8 34.2 6.2 23 2.8 46.5 3.1 69.4-.4-23 3.6-46.4 3.3-69.5.6-11.5-1.4-23-3.4-34.3-6.1l-8.4-2.1c-2.8-.8-5.6-1.5-8.4-2.4-2.8-.9-5.6-1.7-8.3-2.6-2.7-.9-5.5-1.9-8.2-3-21.7-8.4-42.1-19.8-62-31.6-10-6-19.6-12.5-29.6-18.4-5-2.9-10.1-5.7-15.3-8.2-5.2-2.5-10.6-4.6-16.3-5.8-11.3-2.5-23.1-1.8-34.5.1-5.7.9-11.4 2.1-17.1 3.3-2.8.6-5.7 1.2-8.5 1.7l-8.6 1.6-34.2 6.5c-11.4 2.1-22.9 4-34.4 5.6-23 3.2-46.2 5.5-69.5 4.7-5.8-.3-11.6-.6-17.4-1.4-1.4-.2-2.9-.4-4.3-.6-1.4-.3-2.9-.5-4.3-.7-2.9-.5-5.7-1.2-8.5-1.8-11.4-2.5-22.5-5.7-33.8-8.4-2.8-.7-5.6-1.4-8.5-2-2.8-.6-5.7-1.1-8.5-1.6l-8.6-1.3c-2.9-.4-5.7-.9-8.6-1.2-5.7-.6-11.6-.5-17.3.1-2.9.3-5.7.7-8.6 1.2-2.8.6-5.7 1.1-8.5 1.9-5.6 1.4-11.1 3.3-16.5 5.3s-10.8 4.2-16.1 6.5c-10.7 4.6-21.1 9.8-31.4 15-10.4 5.2-20.7 10.5-31.3 15.3-10.6 4.8-21.5 9-32.4 12.8-11 3.7-22.2 7-33.5 9.7-11.3 2.7-22.8 4.7-34.3 6.4-23 3.2-46.2 4.8-69.3 7.4l-8.6 1.1-8.6 1.3-4.3.7-4.3.8-8.6 1.5c-11.4 2.2-22.8 4.6-34.1 7.2-22.7 5.1-45.3 10.4-68.1 14.6-2.8.6-5.7 1-8.6 1.5-2.9.5-5.7 1-8.6 1.4l-8.6 1.2-4.3.6-4.3.4-8.7.9-8.7.6-4.3.3H9.4l-8.7.2Z"/><path d="m.2 568.7 8.7-.4 4.3-.2 4.3-.4 8.7-.8 8.6-1.1 4.3-.5 4.3-.7 8.6-1.3 8.5-1.5c2.8-.5 5.7-1 8.5-1.6 22.7-4.4 45.2-9.9 67.9-14.7 11.3-2.5 22.7-4.6 34.1-6.5l8.6-1.3c1.4-.2 2.9-.4 4.3-.6l4.3-.5c2.9-.3 5.8-.7 8.6-1l8.7-.6c23.1-1.4 46.3-1.5 69.4-3.2 11.5-.8 23.1-2.1 34.5-4 11.4-1.9 22.7-4.4 33.9-7.5 11.2-3 22.2-6.5 33-10.6s21.4-8.7 32-13.4c10.6-4.6 21.2-9.3 32-13.6 5.4-2.2 10.8-4.2 16.3-6.1 2.7-.9 5.5-1.9 8.2-2.8 2.8-.9 5.6-1.7 8.4-2.4 11.2-2.9 22.8-4.7 34.5-4.3 2.9.1 5.8.4 8.7.5l8.7.4c2.9.1 5.8.3 8.7.5l8.7.8c11.5 1.1 23 2.5 34.6 3.4 5.8.5 11.5.8 17.3 1 5.8.1 11.6 0 17.3-.3 23.1-1.2 46.1-4.5 68.9-8.3 11.4-1.9 22.8-4 34.2-6l34.2-6c5.7-1 11.4-2 17.1-2.9 5.7-.9 11.4-1.8 17.2-2.5 5.8-.6 11.6-1 17.4-.9 5.8.2 11.6.9 17.2 2.3s11.1 3.6 16.2 6.3c5.2 2.6 10.2 5.6 15.1 8.7 9.8 6.1 19.3 12.8 29 19.1 19.5 12.4 39.4 24.4 60.8 33.4 2.7 1.1 5.4 2.2 8.1 3.2 2.7 1 5.5 1.9 8.2 2.9 2.7 1 5.5 1.7 8.3 2.6l8.4 2.4c11.2 3 22.6 5.3 34 6.9 22.9 3.2 46.3 3.6 69.2-.1-22.9 3.8-46.3 3.4-69.2.3-11.5-1.6-22.9-3.8-34.1-6.8-2.8-.8-5.6-1.5-8.4-2.3-2.8-.9-5.6-1.6-8.3-2.6-2.7-.9-5.5-1.8-8.2-2.8-2.7-1-5.4-2.1-8.1-3.2-21.4-9-41.3-21-60.9-33.4-9.7-6.3-19.2-13-29-19.1-4.9-3.1-9.9-6-15-8.6-5.1-2.7-10.5-4.9-16.1-6.3-5.6-1.4-11.3-2.1-17.1-2.3-5.8-.2-11.5.2-17.3.9-5.7.6-11.5 1.6-17.2 2.5-5.7.9-11.4 1.9-17.1 2.9l-34.2 6c-11.4 2-22.8 4.1-34.2 6-22.8 3.8-45.8 7.2-69 8.4-5.8.3-11.6.4-17.4.3-5.8-.1-11.6-.5-17.4-1-11.6-.9-23.1-2.2-34.6-3.3l-8.6-.8c-2.9-.2-5.8-.4-8.6-.5l-8.7-.4c-2.9-.1-5.8-.4-8.7-.5-11.5-.3-23.1 1.4-34.2 4.3-2.8.7-5.6 1.5-8.3 2.4-2.8.9-5.5 1.8-8.2 2.8-5.5 1.9-10.9 3.9-16.2 6.1-10.8 4.3-21.4 8.9-32 13.6-10.6 4.6-21.2 9.3-32.1 13.3-10.8 4.1-21.9 7.6-33.1 10.6-11.2 3-22.5 5.5-34 7.4-11.4 1.9-23 3.2-34.5 4-23.1 1.7-46.3 1.7-69.4 3.1l-8.7.6c-2.9.3-5.8.6-8.6.9l-4.3.5c-1.4.2-2.9.4-4.3.6l-8.6 1.3c-11.4 1.9-22.8 4-34.1 6.4-22.7 4.7-45.2 10.1-68 14.5-2.8.6-5.7 1.1-8.5 1.6l-8.6 1.5-8.6 1.3-4.3.6-4.3.5-8.6 1-8.7.7-4.3.4-4.3.2-8.7.3Z"/><path d="m.3 565.8 8.7-.6 4.3-.3 4.3-.5 8.6-.9 8.6-1.2 4.3-.6 4.3-.7 8.6-1.5 8.5-1.7c2.8-.6 5.7-1.1 8.5-1.7 22.7-4.7 45.2-10.2 67.9-14.7 11.4-2.3 22.8-4.2 34.3-5.7 5.8-.6 11.5-1.4 17.3-1.6l4.3-.3h2.2c.7-.2 1.4-.2 2.2-.2h8.7c23.2 0 46.3 1.3 69.5 1.1 11.6 0 23.1-.6 34.7-1.8 11.5-1.2 23-2.9 34.3-5.2 5.7-1.1 11.3-2.4 16.9-3.8 2.8-.7 5.6-1.4 8.4-2.2 2.8-.8 5.6-1.6 8.3-2.5 11.1-3.4 21.9-7.4 32.8-11.4 10.8-4.1 21.6-8.3 32.5-12.2 5.4-2 10.9-3.9 16.4-5.7 2.8-.9 5.5-1.8 8.3-2.6 2.8-.8 5.6-1.6 8.4-2.2 11.3-2.7 22.8-4.2 34.4-5.4 5.8-.6 11.6-1 17.4-1.2l17.4-.6c11.6-.4 23.1-.8 34.7-1.5 5.8-.3 11.6-.7 17.3-1.2 5.8-.5 11.5-1.2 17.2-2 11.5-1.5 22.9-3.5 34.3-5.6 11.4-2.1 22.8-4.3 34.1-6.5 22.7-4.5 45.4-9 68.4-12.3 5.7-.8 11.5-1.6 17.2-2.3 5.7-.7 11.5-1.4 17.3-1.8 11.5-.8 23.3-.4 34.6 2.8 5.6 1.5 11 3.9 16 6.7 5.1 2.8 10 5.9 14.8 9.1 9.7 6.4 19 13.3 28.5 19.9 19.1 13 38.7 25.6 59.7 35.3 5.3 2.4 10.6 4.7 16 6.6 5.4 2 10.9 3.8 16.5 5.4 11.1 3.3 22.4 5.8 33.9 7.6 11.4 1.8 23 2.8 34.6 2.9 11.6 0 23.2-.7 34.6-2.8-11.4 2.1-23 3-34.6 2.9-11.6 0-23.2-1.1-34.6-2.8-11.4-1.8-22.8-4.2-33.9-7.5-5.6-1.6-11.1-3.4-16.5-5.4-5.5-1.9-10.8-4.2-16.1-6.6-21.1-9.7-40.7-22.3-59.8-35.3-9.5-6.6-18.9-13.4-28.5-19.8-4.8-3.2-9.8-6.2-14.8-9s-10.4-5.1-15.9-6.6c-11.1-3.2-22.8-3.5-34.3-2.7-5.8.4-11.5 1.1-17.3 1.8-5.7.7-11.5 1.5-17.2 2.3-22.9 3.4-45.6 7.9-68.3 12.4-11.4 2.2-22.7 4.5-34.1 6.6-11.4 2.1-22.8 4.1-34.3 5.6-5.7.8-11.5 1.5-17.3 2-5.8.5-11.6.9-17.3 1.2-11.6.7-23.1 1.1-34.7 1.5-11.6.5-23.2.5-34.7 1.8-11.5 1.1-23 2.6-34.3 5.3-2.8.7-5.6 1.4-8.4 2.2-2.8.8-5.5 1.7-8.3 2.6-5.5 1.8-11 3.7-16.4 5.7-10.9 3.9-21.7 8.1-32.5 12.2-10.9 4-21.7 8-32.8 11.4-2.8.9-5.6 1.6-8.3 2.5-2.8.8-5.6 1.5-8.4 2.2-5.6 1.4-11.3 2.7-17 3.8-11.4 2.3-22.8 4.1-34.4 5.2-11.5 1.2-23.1 1.7-34.7 1.7-23.2.2-46.3-1.2-69.5-1.3h-8.7c-.7.1-1.4.1-2.2.2H193c0 .1-4.3.4-4.3.4-5.8.3-11.5 1-17.3 1.6-11.5 1.5-22.9 3.3-34.3 5.6-22.7 4.4-45.3 9.9-67.9 14.5-2.8.6-5.7 1.2-8.5 1.7l-8.5 1.6-8.6 1.5-4.3.7-4.3.6-8.6 1.2-8.6.9-4.3.5-4.3.3-8.7.5Z"/><path d="M.3 562.8 9 562l4.3-.4 4.3-.5 8.6-1.1 8.6-1.4 4.3-.7 4.3-.8 8.6-1.6c5.7-1.2 11.4-2.3 17.1-3.5 22.7-4.9 45.3-10.4 68.2-14.5 5.7-1.1 11.5-1.9 17.2-2.8 1.4-.2 2.9-.4 4.3-.6l4.3-.5c2.9-.3 5.8-.8 8.7-.9l8.7-.7c1.4-.1 2.9-.1 4.4-.2h4.4c0-.1 4.4-.3 4.4-.3h4.4l8.7.2c23.2 1.3 46.3 4.2 69.5 5.6 23.2 1.5 46.5.7 69.5-2.5 11.5-1.6 22.9-3.7 34.2-6.4 11.3-2.7 22.4-6 33.5-9.5 11.1-3.5 22.1-7.2 33.1-10.8 5.5-1.8 11-3.6 16.6-5.3 5.5-1.8 11.1-3.4 16.7-4.9 11.3-2.9 22.7-5.2 34.3-6.5 5.8-.6 11.5-1.5 17.2-2.4 5.7-1 11.5-1.8 17.2-2.8 11.5-1.8 22.9-3.8 34.3-5.9 11.4-2.1 22.8-4.3 34.1-6.9 22.6-5.2 45.1-11 67.8-16.2 11.3-2.6 22.7-5.1 34.1-7.3 11.4-2.3 22.9-4.1 34.4-5.6 5.8-.7 11.5-1.4 17.3-1.9 5.8-.5 11.6-.9 17.4-1.1 5.8-.1 11.6 0 17.4.6 5.8.6 11.5 1.7 17.1 3.4 5.6 1.7 11 4 16 7s9.9 6.2 14.6 9.5c9.6 6.6 18.7 13.8 28.1 20.6 18.8 13.6 37.9 26.9 58.7 37.3 10.4 5.2 21.2 9.5 32.2 13.1 11 3.6 22.3 6.4 33.8 8.4 11.4 2 23 3.2 34.6 3.3 11.6.2 23.2-.7 34.7-2.9-11.4 2.3-23 3.1-34.7 3-11.6-.1-23.2-1.3-34.7-3.2-11.5-1.9-22.8-4.8-33.8-8.3-11.1-3.6-21.9-7.8-32.3-13-10.4-5.2-20.4-11.1-30.2-17.4-9.7-6.3-19.3-13-28.7-19.9-9.4-6.9-18.6-14-28.1-20.6-4.8-3.3-9.6-6.5-14.6-9.4a75 75 0 0 0-15.9-6.9c-5.5-1.7-11.3-2.7-17-3.3-5.8-.6-11.6-.7-17.4-.5-5.8.2-11.6.6-17.4 1.1-5.8.5-11.5 1.1-17.3 1.9-11.5 1.5-23 3.4-34.4 5.7-11.4 2.2-22.7 4.7-34 7.3-22.6 5.2-45.1 11.1-67.8 16.3-11.3 2.6-22.7 4.9-34.2 7-11.4 2.1-22.9 4.1-34.3 6-5.7.9-11.5 1.8-17.2 2.7-5.7 1-11.5 1.8-17.3 2.4-11.5 1.3-22.9 3.5-34.2 6.4-5.6 1.5-11.2 3.1-16.7 4.9-5.5 1.7-11.1 3.5-16.6 5.3-11 3.6-22.1 7.3-33.1 10.8-11.1 3.5-22.2 6.8-33.5 9.5s-22.8 4.8-34.3 6.4c-23 3.2-46.4 4-69.6 2.5-23.2-1.4-46.3-4.4-69.5-5.7l-8.7-.2c-1.4 0-2.9-.1-4.3 0h-4.3c0 .1-4.3.3-4.3.3-1.4 0-2.9 0-4.3.2l-8.7.7c-2.9.2-5.8.6-8.7.9l-4.3.5c-1.4.2-2.9.3-4.3.6-5.7.9-11.5 1.7-17.2 2.8-22.9 4.1-45.5 9.5-68.2 14.3-5.7 1.2-11.4 2.3-17.1 3.5l-8.6 1.6-4.3.8-4.3.7-8.6 1.3-8.6 1.1-4.3.5-4.3.4-8.7.7Z"/><path d="M.3 559.9c23.3-2.1 46.2-6.9 69-12 22.8-5.1 45.5-10.7 68.6-14.5 23-3.8 46.6-5.7 69.9-3 23.2 2.6 46.2 7.1 69.4 10 11.6 1.4 23.2 2.4 34.9 2.7 11.7.3 23.3 0 35-.9 11.6-.9 23.2-2.3 34.7-4.4 11.5-2.1 22.9-4.7 34.2-7.7 11.3-2.9 22.5-6.2 33.7-9.5l16.8-5c5.6-1.7 11.2-3.3 16.9-4.8 11.3-3 22.7-5.7 34.2-7.8 5.7-1.1 11.4-2.5 17-4s11.3-3 16.9-4.5c11.3-3.1 22.5-6.4 33.6-9.8 11.2-3.4 22.3-6.9 33.4-10.5 22.2-7.2 44.5-14.5 67-20.6 11.3-3 22.6-5.9 34.1-8.2 11.4-2.5 23-4.4 34.6-5.7 11.6-1.3 23.3-2.1 35-2 11.7 0 23.5 1.4 34.6 5 2.8.9 5.5 1.9 8.2 3.1 2.7 1.2 5.3 2.5 7.8 4 5 3 9.8 6.4 14.5 9.9 9.4 6.9 18.5 14.3 27.7 21.5 18.4 14.3 37.3 28.3 57.8 39.5 10.2 5.7 21 10.3 32 14.2 11 3.9 22.3 7 33.7 9.3 11.5 2.2 23.1 3.6 34.8 3.8 11.7.2 23.4-.6 34.8-3-11.4 2.4-23.2 3.3-34.8 3.1-11.7-.2-23.3-1.5-34.8-3.7-11.5-2.2-22.8-5.3-33.8-9.2-11-3.9-21.8-8.5-32.1-14.1s-20.1-11.9-29.7-18.6c-9.6-6.7-18.9-13.7-28.2-20.9-9.2-7.2-18.3-14.5-27.7-21.4-4.7-3.4-9.5-6.8-14.5-9.8-2.5-1.5-5.1-2.8-7.8-4-2.7-1.2-5.4-2.2-8.2-3.1-11.1-3.5-22.8-4.8-34.5-4.9-11.7 0-23.3.7-34.9 2.1-11.6 1.4-23.1 3.3-34.5 5.8-11.4 2.4-22.8 5.2-34 8.3-22.5 6.1-44.7 13.4-67 20.6-11.1 3.6-22.3 7.1-33.4 10.5-11.2 3.4-22.4 6.8-33.6 9.9-5.6 1.5-11.3 3-16.9 4.5-5.7 1.5-11.3 2.9-17.1 4-11.5 2.1-22.9 4.8-34.1 7.8-5.6 1.5-11.2 3.1-16.8 4.8l-16.8 5c-11.2 3.3-22.4 6.6-33.7 9.5-11.3 3-22.7 5.6-34.2 7.6-11.5 2.1-23.1 3.5-34.8 4.4-11.7.9-23.4 1.2-35.1.9-11.7-.3-23.4-1.3-35-2.7-23.2-2.9-46.1-7.4-69.4-10.1-23.2-2.8-46.7-.9-69.7 2.9-23.1 3.7-45.8 9.2-68.6 14.3-22.8 5.1-45.7 9.8-69 11.8Z"/><path d="M.3 556.9c46.9-5.4 91.8-20.9 138.5-27.7 11.7-1.7 23.4-2.7 35.2-2.9 5.9 0 11.8.2 17.7.6 5.9.5 11.7 1.3 17.5 2.3 23.2 4 46 10 69.2 14.4 46.2 8.9 94.2 7.7 140.2-2.3 11.5-2.4 23-5.2 34.3-8.3 5.7-1.5 11.4-3.1 17-4.7l17-4.7 34-9.4c5.7-1.6 11.2-3.4 16.8-5.4 5.6-2 11.1-4 16.6-6.1 22-8.4 43.6-17.9 65.3-27 10.9-4.6 21.7-9.1 32.7-13.4 11-4.3 22.1-8.3 33.3-11.9 11.2-3.6 22.6-6.8 34.1-9.5 5.8-1.3 11.5-2.6 17.3-3.6 5.8-1 11.6-1.9 17.5-2.5 11.7-1.3 23.5-1.8 35.3-1.4 11.8.5 23.6 2.1 34.8 5.9l4.2 1.5 2.1.8c.7.3 1.3.6 2 .9 2.7 1.2 5.3 2.6 7.9 4.1 2.5 1.5 5 3.2 7.4 4.9 2.4 1.7 4.7 3.5 7.1 5.3 9.3 7.2 18.3 14.8 27.4 22.3 18.1 15 36.6 29.8 56.9 41.8 5.1 3 10.2 5.8 15.5 8.4 5.3 2.5 10.7 4.9 16.2 7 11 4.3 22.3 7.7 33.8 10.2 11.5 2.5 23.2 4 35 4.4 11.8.3 23.6-.5 35.1-3.1-11.5 2.6-23.3 3.5-35.1 3.2-11.8-.3-23.5-1.8-35-4.3s-22.8-5.9-33.8-10.1c-5.5-2.1-10.9-4.5-16.2-7-5.3-2.6-10.5-5.4-15.6-8.4-10.2-6-19.9-12.7-29.3-19.8-9.4-7.1-18.6-14.5-27.7-22-9.1-7.5-18.1-15.1-27.4-22.3-2.3-1.8-4.7-3.6-7.1-5.3-2.4-1.7-4.8-3.4-7.3-4.9-2.5-1.5-5.1-2.9-7.8-4-.7-.3-1.3-.6-2-.9l-2-.8c-1.4-.6-2.8-1-4.1-1.5-11.1-3.8-22.9-5.4-34.6-5.9-11.7-.4-23.5 0-35.2 1.4-5.8.7-11.7 1.5-17.5 2.5-5.8 1-11.5 2.3-17.3 3.6-11.5 2.6-22.8 5.9-34 9.5-11.2 3.6-22.3 7.6-33.2 11.9-11 4.3-21.8 8.8-32.7 13.4-21.7 9.1-43.3 18.7-65.3 27.1-5.5 2.1-11.1 4.1-16.6 6-5.6 1.9-11.2 3.8-16.9 5.4l-34.1 9.4-17 4.7c-5.7 1.6-11.3 3.2-17 4.7-11.4 3-22.8 5.8-34.4 8.2-46.1 10-94.2 11.2-140.5 2.1-23.2-4.4-46-10.4-69.2-14.4-5.8-1.1-11.6-1.8-17.5-2.4-5.9-.5-11.7-.7-17.6-.6-11.8.1-23.5 1.2-35.2 2.8-46.7 6.6-91.7 22-138.6 27.2Z"/><path d="M.4 554c47.2-6.5 92.4-22.9 139.8-28.8 5.9-.7 11.8-1.3 17.8-1.5h2.2c0-.1 2.2-.2 2.2-.2h13.4c11.9.4 23.8 2.2 35.3 5.1 23.2 5.5 45.8 12.9 68.9 18.7 23.1 5.8 46.7 9.1 70.5 10 23.8.9 47.6-.7 71.1-4.5 11.7-1.9 23.4-4.3 34.9-7.1 11.6-2.8 23-6 34.4-9.4 11.4-3.4 22.7-7.1 33.9-11.1 11.1-4.1 22-9 32.7-14.1 21.5-10.2 42.3-21.8 63.4-32.8 21.1-11 42.5-21.6 64.7-30.1 11.1-4.2 22.5-8 34-11l2.2-.6 2.2-.5 4.4-1c2.9-.7 5.8-1.4 8.7-1.9 5.9-1.1 11.7-2 17.7-2.7 11.8-1.3 23.8-1.7 35.7-1 11.9.8 23.8 2.8 35 6.8 5.6 2 11.1 4.5 16.2 7.5 2.6 1.5 5.1 3.2 7.4 5 2.4 1.8 4.7 3.7 7 5.5 9.3 7.5 18.2 15.4 27.1 23.2 17.9 15.7 36 31.3 56 44.2 19.9 13.1 42.1 22.4 65.2 28l2.2.5 2.2.5 4.4.9c2.9.6 5.9 1 8.8 1.5 3 .3 5.9.8 8.9 1l4.4.3 2.2.2h2.2c11.9.5 23.8-.4 35.4-3.1-11.6 2.8-23.5 3.7-35.4 3.3h-2.2l-2.2-.2-4.5-.3c-3-.3-5.9-.7-8.9-1-2.9-.5-5.9-.9-8.8-1.5l-4.4-.9-2.2-.4-2.2-.5c-23.1-5.5-45.5-14.8-65.4-27.9-20.1-12.9-38.2-28.5-56.1-44.2-8.9-7.8-17.9-15.7-27.1-23.2-2.3-1.9-4.6-3.7-7-5.5-2.4-1.8-4.9-3.4-7.4-4.9-5.1-3-10.5-5.5-16.1-7.5-11.2-4-23-6-34.9-6.7-11.9-.7-23.8-.4-35.6 1-5.9.7-11.8 1.6-17.6 2.7-2.9.5-5.8 1.3-8.7 1.9l-4.3 1-2.2.5-2.2.6c-11.5 3-22.8 6.8-33.9 11-22.2 8.5-43.6 19.1-64.6 30.2-21.1 11-41.9 22.6-63.4 32.9-10.8 5.1-21.6 10-32.8 14.1-11.2 4-22.6 7.7-34 11.1-11.4 3.4-22.9 6.6-34.5 9.4-11.6 2.8-23.3 5.1-35 7-23.5 3.8-47.4 5.4-71.2 4.5-23.8-.9-47.5-4.3-70.6-10.1-23.1-5.8-45.7-13.2-68.9-18.7-11.5-2.9-23.3-4.7-35.2-5.1-3-.2-5.9-.1-8.9-.2h-4.5l-2.2.1h-2.2c-5.9.4-11.9.9-17.8 1.6-47.3 5.7-92.6 22-139.8 28.3Z"/><path d="M.4 551c23.8-3.8 47.1-10.1 70.4-16 23.3-5.9 46.9-11.6 70.9-13.8 6-.6 12-.9 18.1-1 6 0 12.1.2 18.1.7 6 .6 12 1.4 17.9 2.8 5.9 1.3 11.7 2.9 17.5 4.7 23.1 7 45.5 15.9 68.5 22.9 2.9.9 5.8 1.7 8.7 2.5 2.9.8 5.8 1.5 8.7 2.2l8.8 2.2 8.8 1.8 4.4.9c1.5.3 2.9.6 4.4.8l8.9 1.3 4.5.7c.7.1 1.5.2 2.2.3l2.2.2 9 .9c24 2.2 48.1 1.9 72.1-.8 23.9-2.8 47.5-7.9 70.4-15.5l8.6-2.9c1.4-.4 2.8-1 4.2-1.6l4.2-1.6 8.4-3.3 8.2-3.7 4.1-1.8c1.4-.6 2.8-1.2 4.1-1.9l8-4.1c5.4-2.6 10.6-5.7 15.9-8.6 20.9-11.9 41.1-25.1 61.5-37.9 10.2-6.4 20.5-12.6 31-18.6 5.3-2.9 10.5-5.9 15.9-8.6l4-2.1c1.3-.7 2.7-1.4 4.1-2l8.2-3.8c11-4.9 22.2-9.4 33.8-12.8 5.7-1.9 11.6-3.2 17.5-4.6 5.9-1.4 11.8-2.4 17.8-3.1 12-1.5 24.1-1.8 36.1-.8 6 .5 12 1.4 17.9 2.6 5.9 1.2 11.7 2.9 17.4 5 5.7 2.1 11.2 4.7 16.3 7.8 5.2 3.1 10.1 6.7 14.6 10.7 9.2 7.8 18 16 26.9 24.2 17.6 16.4 35.3 32.8 55.1 46.7 1.2.9 2.5 1.7 3.7 2.6l3.8 2.5c2.5 1.6 5.1 3.2 7.7 4.8 1.3.8 2.6 1.5 3.9 2.2 1.3.7 2.6 1.5 4 2.2l4 2 2 1 2.1.9c10.9 5.1 22.3 9.2 33.9 12.3 11.6 3.1 23.6 5.1 35.6 5.7 12 .6 24.2-.3 35.8-3.3-11.7 3-23.8 3.9-35.8 3.4-12-.5-24-2.5-35.6-5.6-11.7-3.1-23-7.2-34-12.3l-2.1-.9-2-1-4-2c-1.4-.7-2.6-1.4-4-2.2-1.3-.7-2.6-1.5-3.9-2.2-2.6-1.6-5.2-3.1-7.7-4.8l-3.8-2.5c-1.3-.8-2.5-1.7-3.7-2.5-19.8-13.8-37.5-30.3-55.2-46.6-8.8-8.2-17.7-16.3-26.9-24.2-4.5-4-9.3-7.6-14.5-10.6-5.2-3.1-10.6-5.6-16.3-7.7-5.6-2.1-11.4-3.7-17.3-5-5.9-1.2-11.8-2.1-17.8-2.6-12-1-24.1-.6-36 .9-6 .7-11.9 1.7-17.8 3.1-5.8 1.5-11.7 2.7-17.4 4.6-11.5 3.4-22.7 7.9-33.7 12.8l-8.2 3.8c-1.4.6-2.7 1.3-4 2l-4 2.1c-5.4 2.7-10.6 5.7-15.9 8.6-10.4 6-20.8 12.2-30.9 18.6-20.4 12.8-40.6 26-61.5 38-5.3 2.9-10.5 5.9-15.9 8.6l-8.1 4.1c-1.3.7-2.7 1.3-4.1 1.9l-4.1 1.8-8.3 3.7-8.4 3.3-4.2 1.6c-1.4.5-2.8 1.1-4.2 1.6l-8.6 2.9c-22.9 7.5-46.6 12.7-70.5 15.4-24 2.7-48.2 2.9-72.2.7l-9-.9-2.2-.2c-.7 0-1.5-.2-2.2-.3l-4.5-.7-8.9-1.3c-1.5-.2-3-.6-4.4-.8l-4.4-.9-8.9-1.8-8.8-2.2c-2.9-.8-5.9-1.4-8.8-2.3-2.9-.8-5.8-1.7-8.7-2.6-23-7.1-45.5-16-68.5-23-5.8-1.8-11.6-3.4-17.4-4.7-5.9-1.3-11.8-2.1-17.8-2.8-6-.5-12-.8-18-.8s-12 .4-18 .9c-24 2.2-47.5 7.8-70.9 13.6-23.4 5.8-46.7 12.1-70.5 15.8Z"/></svg>